<?xml version="1.0" encoding="UTF-8" standalone="no"?>
<!-- Created with Inkscape (http://www.inkscape.org/) -->

<svg
   width="379"
   height="369"
   viewBox="0 0 379.00057 369"
   version="1.1"
   id="svg5"
   inkscape:version="1.1.2 (0a00cf5339, 2022-02-04)"
   sodipodi:docname="drawing.svg"
   xmlns:inkscape="http://www.inkscape.org/namespaces/inkscape"
   xmlns:sodipodi="http://sodipodi.sourceforge.net/DTD/sodipodi-0.dtd"
   xmlns="http://www.w3.org/2000/svg"
   xmlns:svg="http://www.w3.org/2000/svg">
  <sodipodi:namedview
     id="namedview7"
     pagecolor="#ffffff"
     bordercolor="#666666"
     borderopacity="1.0"
     inkscape:pageshadow="2"
     inkscape:pageopacity="0.0"
     inkscape:pagecheckerboard="0"
     inkscape:document-units="px"
     showgrid="false"
     inkscape:zoom="0.67402316"
     inkscape:cx="235.15512"
     inkscape:cy="183.96994"
     inkscape:window-width="1366"
     inkscape:window-height="706"
     inkscape:window-x="0"
     inkscape:window-y="0"
     inkscape:window-maximized="1"
     inkscape:current-layer="g1188"
     units="px"
     fit-margin-top="0"
     inkscape:lockguides="true" />
  <defs
     id="defs2" />
  <g
     inkscape:label="Layer 1"
     inkscape:groupmode="layer"
     id="layer1">
    <g
       transform="translate(614.53262,-376.19783)"
       style="image-rendering:optimizeSpeed"
       id="g1188">
      <rect
         style="fill:#ffffff;fill-rule:evenodd;stroke:#000000;stroke-width:6.82658;stroke-linejoin:round;paint-order:markers stroke fill"
         id="rect862"
         width="608.31726"
         height="615.36108"
         x="-721.10266"
         y="256.55383"
         ry="31.342068" />
      <g
         id="g838"
         transform="translate(8.6197947,-6.1327553)">
        <path
           style="fill:#fdfdfd"
           d="m -616.53711,564.45253 v -183 h 186.5 186.5 v 183 183 h -186.5 -186.5 z m 182.28212,171.63802 c 4.79844,-2.03097 6.84921,-4.93591 7.56999,-10.72301 0.38412,-3.08403 1.25858,-5.5136 2.14789,-5.96757 0.825,-0.42115 5.775,-1.96304 11,-3.42643 14.27836,-3.99901 28.09442,-11.07895 37.52466,-19.22926 9.90942,-8.56445 20.81521,-21.8398 25.99907,-31.64804 l 3.9415,-7.45758 8.35398,-0.34308 c 7.71097,-0.31668 8.53975,-0.55905 10.76739,-3.14883 2.01395,-2.34136 2.4134,-3.87767 2.4134,-9.2821 0,-7.70385 -1.53119,-11.78056 -6.48362,-17.26231 l -3.67796,-4.07107 1.07797,-8.78937 c 0.59289,-4.83415 1.08706,-17.56437 1.09816,-28.28937 0.0278,-26.84247 1.95552,-35.20221 13.48998,-58.5 9.65669,-19.50498 19.88123,-30.76354 35.17102,-38.72792 5.92958,-3.08869 6.25293,-3.14678 8.11858,-1.45839 1.94632,1.76139 6.41317,10.99178 9.66686,19.9758 2.28691,6.31453 6.05198,10.71051 9.17336,10.71051 3.33622,0 7.08599,-3.99235 7.91868,-8.43096 1.08424,-5.7795 -0.16134,-27.47422 -1.95603,-34.06904 -3.69607,-13.58167 -11.05109,-23.89287 -22.097,-30.97838 -5.60912,-3.59803 -19.07699,-8.52675 -23.25885,-8.51185 -9.85785,0.0351 -34.64526,20.62856 -46.32899,38.49023 -3.23791,4.95 -6.4863,9.86202 -7.21864,10.9156 -1.16628,1.67787 -1.48196,0.52861 -2.54367,-9.2604 -3.00053,-27.66496 -12.30869,-49.74562 -27.9681,-66.34541 -15.84224,-16.79362 -38.00816,-25.71478 -56.90781,-22.9038 -14.92391,2.21965 -27.43906,8.45697 -38.9959,19.43485 -16.23425,15.42095 -27.72427,39.37134 -30.8359,64.27592 -0.36992,2.96078 -1.02798,5.38324 -1.46234,5.38324 -0.43437,0 -2.03114,-2.1375 -3.54839,-4.75 -6.75558,-11.6322 -20.56598,-26.25059 -33.55715,-35.52042 -7.62107,-5.43802 -12.57892,-7.72958 -16.72308,-7.72958 -3.20284,0 -13.61661,3.68194 -21.0096,7.42825 -15.39597,7.80173 -25.25955,25.87407 -26.78255,49.07175 -1.07694,16.40355 2.35336,25.96299 9.07757,25.29706 3.86577,-0.38285 6.34262,-4.04708 11.18722,-16.5503 2.0457,-5.27967 4.95226,-10.97915 6.45901,-12.66549 l 2.73955,-3.0661 4.83881,2.34285 c 23.82104,11.5336 42.1158,39.16706 49.41681,74.64198 0.78392,3.80897 1.29193,16.40739 1.39116,34.5 0.14947,27.25221 0.2708,28.93782 2.77114,38.5 5.50555,21.05515 13.24098,37.95658 23.85721,52.12649 3.2444,4.33043 5.89081,8.09851 5.8809,8.37351 -0.01,0.275 -3.25296,2.02035 -7.20677,3.87856 -22.49912,10.57409 -31.95955,37.66519 -15.23335,43.6226 5.69491,2.02837 75.99334,2.14752 80.74383,0.13686 z m -46.28212,-146.63802 c 0,-0.55 -1.71399,-1 -3.80887,-1 -6.75662,0 -7.56291,-1.35611 -6.89136,-11.59072 0.42603,-6.49289 0.23442,-9.3797 -0.70647,-10.64374 -0.71008,-0.95395 -1.653,-1.40395 -2.09538,-1 -0.44237,0.40395 0.35525,-1.51554 1.77249,-4.26554 1.41725,-2.75 3.98351,-8.03611 5.70281,-11.74692 2.76766,-5.97349 14.10638,-21.75308 15.63109,-21.75308 0.31913,0 1.7244,0.9 3.12282,2 1.87397,1.47407 4.05678,2 8.30074,2 3.67543,0 5.93749,0.45213 6.25396,1.25 0.27269,0.6875 3.94137,5.975 8.15261,11.75 13.18946,18.08708 16.49073,20.5133 21.5272,15.82111 1.28633,-1.19839 6.17729,-8.06089 10.86881,-15.25 8.22262,-12.60003 12.7449,-21.66243 11.45404,-22.95329 -0.3398,-0.3398 1.20593,-0.61782 3.43496,-0.61782 3.57988,0 4.74448,0.67095 9.98057,5.75 7.67883,7.44854 13.08534,14.92945 17.52563,24.25 5.5655,11.68248 6.74204,14.92061 6.06362,16.68855 -0.42114,1.09749 -0.24236,1.40049 0.54079,0.91648 1.24309,-0.76828 1.63294,0.59864 0.49521,1.73636 -0.37109,0.3711 -1.5399,-0.5664 -2.59733,-2.08333 -1.91178,-2.74251 -1.91893,-2.74396 -1.26835,-0.25806 1.04723,4.00155 1.03696,19.01086 -0.0129,18.87125 -0.52067,-0.0692 -1.50917,-0.34174 -2.19667,-0.60556 -0.6875,-0.26382 -2.0375,-0.11843 -3,0.32309 -0.9625,0.44152 -9.175,0.85742 -18.25,0.92422 -9.075,0.0668 -17.4,0.47115 -18.5,0.89856 -1.614,0.62712 -1.7105,0.56271 -0.5,-0.33374 1.10877,-0.82113 -6.91134,-1.05883 -30.75,-0.91139 -25.90806,0.16024 -32.25,0.45846 -32.25,1.51652 0,0.86989 -1.35805,1.31705 -4,1.31705 -2.2,0 -4,-0.45 -4,-1 z m 71,-64.79911 c 0,-0.43951 -1.6875,-1.39335 -3.75,-2.11964 -2.0625,-0.72629 -4.65,-2.1181 -5.75,-3.09292 -1.1,-0.97482 -3.4625,-2.08174 -5.25,-2.45982 -1.7875,-0.37808 -3.25,-1.02943 -3.25,-1.44745 0,-0.41802 -1.125,-1.27261 -2.5,-1.89911 -7.44917,-3.39406 3.68291,-4.4417 12.31894,-1.15932 2.92542,1.11188 6.37925,2.71635 7.67518,3.56547 2.935,1.92309 4.7943,6.72348 3.21561,8.30217 -1.29517,1.29517 -2.70973,1.45732 -2.70973,0.31062 z m 1.34519,-23.45137 c -0.30112,-0.48723 -1.13973,-0.6586 -1.86358,-0.38084 -1.80554,0.69285 -2.47969,-1.5252 -2.49243,-8.20047 -0.006,-3.11751 -0.62983,-7.70735 -1.38639,-10.19963 -1.29314,-4.25991 -1.24549,-4.68265 0.79528,-7.05518 1.19396,-1.38806 4.1222,-3.30453 6.50719,-4.25882 4.08803,-1.6357 4.6279,-1.63823 9.42728,-0.0441 7.67713,2.54994 11.66746,8.29299 11.66746,16.79233 0,6.43428 -1.41037,9.25808 -5.70971,11.43185 -4.03752,2.04138 -16.02939,3.39653 -16.9451,1.91489 z m -57.90631,-13.7714 c -4.75559,-1.78568 -5.95263,-16.05737 -2.00091,-23.85571 7.32256,-14.45038 22.34156,-9.86067 25.1472,7.68482 0.44936,2.81019 0.0816,4.94427 -1.34111,7.78236 -1.07814,2.15073 -2.26065,5.15971 -2.62779,6.68663 -0.66653,2.77206 -0.67984,2.77599 -8.8919,2.62602 -4.5234,-0.0826 -9.15188,-0.49846 -10.28549,-0.92412 z"
           id="path1204" />
        <path
           style="fill:#d1d1cf"
           d="m -489.62113,735.26918 c 10.6237,-0.1621 27.7237,-0.16186 38,5.4e-4 10.2763,0.16239 1.58418,0.29502 -19.31582,0.29473 -20.9,-3e-4 -29.30788,-0.13317 -18.68418,-0.29527 z m 66.18418,-17.25108 c 0,-0.55 0.47656,-1 1.05902,-1 0.58246,0 0.7809,0.45 0.44098,1 -0.33992,0.55 -0.81648,1 -1.05902,1 -0.24254,0 -0.44098,-0.45 -0.44098,-1 z m 54,-26.5 c 1.86578,-1.925 3.61733,-3.5 3.89233,-3.5 0.275,0 -1.02655,1.575 -2.89233,3.5 -1.86578,1.925 -3.61733,3.5 -3.89233,3.5 -0.275,0 1.02655,-1.575 2.89233,-3.5 z m 6.5,-6.5 c 0.99549,-1.1 2.03498,-2 2.30998,-2 0.275,0 -0.31449,0.9 -1.30998,2 -0.99549,1.1 -2.03498,2 -2.30998,2 -0.275,0 0.31449,-0.9 1.30998,-2 z m 4,-5 c 0.99549,-1.1 2.03498,-2 2.30998,-2 0.275,0 -0.31449,0.9 -1.30998,2 -0.99549,1.1 -2.03498,2 -2.30998,2 -0.275,0 0.31449,-0.9 1.30998,-2 z m 34,-27 c 0.99549,-1.1 2.03498,-2 2.30998,-2 0.275,0 -0.31449,0.9 -1.30998,2 -0.99549,1.1 -2.03498,2 -2.30998,2 -0.275,0 0.31449,-0.9 1.30998,-2 z m -162.70698,-11.75 c -1.24855,-1.50368 -5.48814,-1.66464 -5.9675,-0.22656 -0.48817,1.46452 -6.82552,0.0113 -6.82552,-1.56511 0,-0.71041 -0.56099,-1.47866 -1.24665,-1.70721 -2.91434,-0.97145 -1.90159,-26.7009 1.84019,-46.75112 1.86328,-9.98434 5.49267,-22.06475 6.45109,-21.47241 0.42287,0.26134 0.51493,-0.49582 0.20459,-1.68258 -0.3838,-1.46765 -0.19773,-1.93122 0.5818,-1.44944 0.72562,0.44845 0.94199,0.17648 0.58978,-0.74136 -0.30596,-0.79732 0.80255,-4.08319 2.46336,-7.30194 1.6608,-3.21875 3.04129,-5.31549 3.06774,-4.65943 0.0265,0.65606 -0.89981,2.79943 -2.05837,4.76304 -1.94161,3.29078 -1.98518,3.75531 -0.55668,5.93547 1.23135,1.87927 1.43004,4.16995 0.96699,11.14839 -0.66983,10.09474 0.15081,11.46026 6.88729,11.46026 2.09488,0 3.80887,0.45 3.80887,1 0,0.55 1.8,1 4,1 2.64195,0 4,-0.44716 4,-1.31705 0,-1.05806 6.34194,-1.35628 32.25,-1.51652 23.83866,-0.14744 31.85877,0.0903 30.75,0.91139 -1.2105,0.89645 -1.114,0.96086 0.5,0.33374 1.1,-0.42741 9.425,-0.83176 18.5,-0.89856 9.075,-0.0668 17.2875,-0.4827 18.25,-0.92422 0.9625,-0.44152 2.3125,-0.58691 3,-0.32309 0.6875,0.26382 1.676,0.53632 2.19667,0.60556 1.04988,0.13961 1.06015,-14.8697 0.0129,-18.87125 -0.65058,-2.4859 -0.64343,-2.48445 1.26835,0.25806 1.05743,1.51693 2.22624,2.45443 2.59733,2.08333 1.10689,-1.10688 0.76399,-2.51459 -0.4324,-1.77518 -0.75421,0.46613 -0.87945,-0.0331 -0.39287,-1.56621 0.46227,-1.45647 0.34804,-2.02412 -0.32377,-1.60892 -0.57092,0.35285 -1.36366,0.11467 -1.76164,-0.52928 -0.47385,-0.76671 -0.28815,-0.90169 0.53804,-0.39108 1.46513,0.90551 0.72667,-2.13837 -1.65305,-6.81365 -0.79588,-1.56361 -1.25368,-3.03631 -1.01733,-3.27265 0.77088,-0.77088 6.69598,13.51211 9.29998,22.41842 2.56932,8.78773 7.15053,33.79774 6.33946,34.6088 -0.24155,0.24156 -4.03525,-0.24943 -8.43044,-1.09107 -16.96995,-3.24959 -35.48014,1.07782 -49.33116,11.53291 -3.33703,2.51889 -11.16007,13.09789 -11.16007,15.09165 0,0.58018 -0.46973,1.05487 -1.04384,1.05487 -0.57411,0 -0.97079,0.5625 -0.88151,1.25 0.48806,3.75854 0.94238,3.71308 -40.40918,4.04354 -19.65566,0.15708 -26.08277,-0.0925 -26.87245,-1.04354 z m 38.45698,-0.997 c -6.7375,-0.17301 -17.7625,-0.17301 -24.5,0 -6.7375,0.17301 -1.225,0.31456 12.25,0.31456 13.475,0 18.9875,-0.14155 12.25,-0.31456 z m 69.25,-21.253 c -0.35667,-0.5771 0.5699,-0.99352 2.19098,-0.98469 2.18111,0.0119 2.47372,0.232 1.30902,0.98469 -1.92129,1.24163 -2.73263,1.24163 -3.5,0 z m 8.75,-0.70573 c -1.2375,-0.23836 -2.25,-0.85207 -2.25,-1.36382 0,-1.2981 4.73752,-1.02804 9.5,0.54155 l 4,1.31829 -4.5,-0.0313 c -2.475,-0.0172 -5.5125,-0.22634 -6.75,-0.46469 z m -151.17105,-9.8776 c 0.048,-1.16495 0.28494,-1.4019 0.60416,-0.60417 0.28888,0.72187 0.25335,1.58437 -0.079,1.91667 -0.33229,0.33229 -0.56864,-0.25834 -0.52522,-1.3125 z m 0.0789,-33.41667 c 0,-1.375 0.22697,-1.9375 0.50438,-1.25 0.27741,0.6875 0.27741,1.8125 0,2.5 -0.27741,0.6875 -0.50438,0.125 -0.50438,-1.25 z m -0.079,-14.58333 c 0.048,-1.16495 0.28495,-1.4019 0.60417,-0.60417 0.28887,0.72187 0.25335,1.58437 -0.079,1.91667 -0.33229,0.33229 -0.56864,-0.25834 -0.52522,-1.3125 z m 93.84173,-1.16667 c -1.12655,-1.48877 -1.11497,-1.56341 0.0776,-0.5 1.67945,1.49761 5.63666,1.64977 6.50177,0.25 0.33992,-0.55 1.12748,-1 1.75015,-1 0.62266,0 0.2586,0.66069 -0.80902,1.4682 -2.63674,1.99432 -5.9183,1.89911 -7.52046,-0.2182 z m 9.07933,-2.62756 c 0,-0.20765 0.7875,-0.99515 1.75,-1.75 1.58606,-1.24387 1.62143,-1.2085 0.37756,0.37756 -1.30637,1.66575 -2.12756,2.19548 -2.12756,1.37244 z m -14.59501,-2.87244 -1.90499,-2.25 2.25,1.90499 c 2.11444,1.79022 2.70524,2.59501 1.90499,2.59501 -0.18976,0 -1.20226,-1.0125 -2.25,-2.25 z m -50.70959,-5.23744 c 0.91468,-1.9181 1.84058,-3.30991 2.05756,-3.09293 0.45746,0.45746 -2.5782,6.58037 -3.26246,6.58037 -0.25198,0 0.29023,-1.56935 1.2049,-3.48744 z m 117.76348,2.42091 c -0.36253,-0.58659 -0.44468,-1.281 -0.18255,-1.54313 0.26212,-0.26213 0.74306,0.21781 1.06875,1.06653 0.67618,1.76211 0.0999,2.07206 -0.8862,0.4766 z m -72.58644,-4.68347 c -1.24387,-1.58606 -1.2085,-1.62143 0.37756,-0.37756 0.9625,0.75485 1.75,1.54235 1.75,1.75 0,0.82304 -0.82119,0.29331 -2.12756,-1.37244 z m 69.58644,-1.31653 c -0.36253,-0.58659 -0.44468,-1.281 -0.18255,-1.54313 0.26212,-0.26213 0.74306,0.21781 1.06875,1.06653 0.67618,1.76211 0.0999,2.07206 -0.8862,0.4766 z m -72.58644,-2.68347 c -1.24387,-1.58606 -1.2085,-1.62143 0.37756,-0.37756 1.66575,1.30637 2.19548,2.12756 1.37244,2.12756 -0.20765,0 -0.99515,-0.7875 -1.75,-1.75 z m 33.12756,-0.25 c 0.5887,-1.1 1.29537,-2 1.57037,-2 0.275,0 0.0183,0.9 -0.57037,2 -0.5887,1.1 -1.29537,2 -1.57037,2 -0.275,0 -0.0183,-0.9 0.57037,-2 z m -36.12756,-3.75 c -1.24387,-1.58606 -1.2085,-1.62143 0.37756,-0.37756 0.9625,0.75485 1.75,1.54235 1.75,1.75 0,0.82304 -0.82119,0.29331 -2.12756,-1.37244 z m -29.37244,-5.25 c 0.99549,-1.1 2.03498,-2 2.30998,-2 0.275,0 -0.31449,0.9 -1.30998,2 -0.99549,1.1 -2.03498,2 -2.30998,2 -0.275,0 0.31449,-0.9 1.30998,-2 z m 95.90499,-1.25 -1.90499,-2.25 2.25,1.90499 c 2.11444,1.79022 2.70524,2.59501 1.90499,2.59501 -0.18976,0 -1.20226,-1.0125 -2.25,-2.25 z m -85.64824,-4 c -1.29512,-1.2375 -1.64846,-1.71119 -0.7852,-1.05265 0.86327,0.65854 2.68532,1.64252 4.04901,2.18661 1.64878,0.65784 1.91183,1.0105 0.7852,1.05265 -0.93183,0.0349 -2.75388,-0.94911 -4.04901,-2.18661 z m 63.27388,1.75 c 0,-0.55 0.43621,-1.675 0.96937,-2.5 0.53316,-0.825 0.96937,-1.05 0.96937,-0.5 0,0.55 -0.43621,1.675 -0.96937,2.5 -0.53316,0.825 -0.96937,1.05 -0.96937,0.5 z m -10.62094,-4.57561 c -2.70033,-1.58966 -5.64209,-2.89796 -6.53725,-2.90734 -0.89515,-0.009 -2.15103,-0.64781 -2.79085,-1.41874 -0.63981,-0.77092 -3.16991,-1.99416 -5.62244,-2.71831 -2.45253,-0.72415 -4.45915,-1.59616 -4.45915,-1.9378 0,-0.34164 -1.2375,-1.18546 -2.75,-1.87514 l -2.75,-1.25397 3,-2.40158 c 2.43167,-1.94661 4.13667,-2.3958 9,-2.37111 3.58865,0.0182 7.00473,0.64683 8.5,1.56411 1.518,0.93122 1.7144,1.23561 0.5,0.77493 -1.1,-0.41728 -4.5875,-0.93833 -7.75,-1.15789 -6.19895,-0.43036 -7.69701,0.93421 -3.25,2.9604 1.375,0.6265 2.5,1.48109 2.5,1.89911 0,0.41802 1.4625,1.06937 3.25,1.44745 1.7875,0.37808 4.15,1.46601 5.25,2.41761 1.1,0.95161 3.575,2.33998 5.5,3.08527 1.925,0.74528 3.8032,1.80167 4.17378,2.34753 1.041,1.53337 3.79597,-1.2473 3.17245,-3.20203 -0.43969,-1.37842 -0.35311,-1.42043 0.48642,-0.23602 1.17974,1.66438 -0.87527,6.47777 -3.13597,7.34528 -0.75751,0.29069 -3.58666,-0.77211 -6.28699,-2.36176 z m 22.9953,-3.17439 -1.90499,-2.25 2.25,1.90499 c 2.11444,1.79022 2.70524,2.59501 1.90499,2.59501 -0.18976,0 -1.20226,-1.0125 -2.25,-2.25 z m -69.90499,-3.15786 c -7.14908,-3.16841 -12.0016,-10.53718 -14.91956,-22.65603 -1.75265,-7.27912 -2.07358,-17.50886 -0.66547,-21.21246 0.50323,-1.32361 1.1394,-3.83062 1.41371,-5.57113 1.18034,-7.48937 8.04253,-17.26915 13.96837,-19.90729 9.20117,-4.0963 19.35587,3.01124 24.13951,16.89584 1.49788,4.34765 1.49499,4.36175 -1.35187,6.58975 -1.56913,1.22803 -3.58011,4.05008 -4.46883,6.27122 -1.80467,4.51032 -2.1532,15.63757 -0.65358,20.86645 1.1884,4.1437 -0.82374,7.31253 -5.78442,9.10963 -2.25649,0.81746 -3.14223,1.67234 -2.76128,2.66509 0.77274,2.01372 -3.39298,8.39878 -5.41658,8.30234 -0.275,-0.0131 -1.85,-0.62214 -3.5,-1.35341 z m 15.11627,-34.31592 c 0.36714,-1.52692 1.54965,-4.5359 2.62779,-6.68663 4.64868,-9.27339 -2.98922,-24.19351 -12.26069,-23.95041 -10.36853,0.27188 -16.81521,14.17694 -12.79449,27.59689 1.45655,4.86155 2.91536,5.47223 13.53549,5.66617 8.21206,0.14997 8.22537,0.14604 8.8919,-2.62602 z m 47.63373,35.03445 c 0.9625,-0.25152 2.5375,-0.25152 3.5,0 0.9625,0.25153 0.175,0.45733 -1.75,0.45733 -1.925,0 -2.7125,-0.2058 -1.75,-0.45733 z m -11.75,-10.92252 c -2.75,-1.44761 -5.16883,-2.78348 -5.37518,-2.9686 -0.20635,-0.18512 0.35615,-2.16435 1.25,-4.3983 3.08093,-7.7 1.60157,-20.07489 -3.00888,-25.16938 -1.41483,-1.56337 -1.38839,-1.94933 0.28814,-4.20597 2.51471,-3.38485 9.00216,-7.49078 13.02925,-8.24627 5.28009,-0.99055 9.86502,0.38532 15.11625,4.53618 9.89972,7.82528 12.31724,19.32455 6.50325,30.93356 -4.15853,8.30347 -8.38316,11.2826 -16.71062,11.78399 -5.0869,0.30628 -6.91729,-0.0675 -11.09221,-2.26521 z m 19.79029,-10.55352 c 4.29934,-2.17377 5.70971,-4.99757 5.70971,-11.43185 0,-8.49934 -3.99033,-14.24239 -11.66746,-16.79233 -4.79938,-1.5941 -5.33925,-1.59157 -9.42728,0.0441 -2.38499,0.95429 -5.31323,2.87075 -6.50719,4.25882 -2.04077,2.37253 -2.08842,2.79527 -0.79528,7.05518 0.75656,2.49228 1.38043,7.08212 1.38639,10.19963 0.0127,6.67527 0.68689,8.89332 2.49243,8.20047 0.72385,-0.27776 1.56246,-0.10639 1.86358,0.38084 0.91571,1.48164 12.90758,0.12649 16.9451,-1.91489 z m -219.05829,-4.83463 c 0,-1.925 0.2058,-2.7125 0.45733,-1.75 0.25152,0.9625 0.25152,2.5375 0,3.5 -0.25153,0.9625 -0.45733,0.175 -0.45733,-1.75 z m 0.0404,-9 c 0,-2.475 0.19502,-3.4875 0.43337,-2.25 0.23836,1.2375 0.23836,3.2625 0,4.5 -0.23835,1.2375 -0.43337,0.225 -0.43337,-2.25 z m 190.85287,-1.83565 c -1.40297,-2.54557 -0.74508,-4.1842 0.98522,-2.4539 0.59241,0.59241 0.90272,1.91241 0.68958,2.93333 -0.34777,1.66581 -0.51957,1.61663 -1.6748,-0.47943 z m -16.09005,-2.09861 c -1.25189,-2.33918 -1.33499,-4.06574 -0.1957,-4.06574 0.72693,0 3.16052,4.27122 3.16052,5.54705 0,1.24283 -2.0569,0.21514 -2.96482,-1.48131 z m 83.12271,-0.0657 c 0,-1.375 0.22698,-1.9375 0.50439,-1.25 0.27741,0.6875 0.27741,1.8125 0,2.5 -0.27741,0.6875 -0.50439,0.125 -0.50439,-1.25 z M -581.437,479.64058 c 0,-0.20765 0.7875,-0.99515 1.75,-1.75 1.58606,-1.24387 1.62143,-1.2085 0.37756,0.37756 -1.30637,1.66575 -2.12756,2.19548 -2.12756,1.37244 z m -14,-33 c 0,-0.20765 0.7875,-0.99515 1.75,-1.75 1.58606,-1.24387 1.62143,-1.2085 0.37756,0.37756 -1.30637,1.66575 -2.12756,2.19548 -2.12756,1.37244 z m 5.5,-5.62244 c 0.99549,-1.1 2.03498,-2 2.30997,-2 0.275,0 -0.31448,0.9 -1.30997,2 -0.99549,1.1 -2.03498,2 -2.30998,2 -0.27499,0 0.31449,-0.9 1.30998,-2 z m 145.82963,-25.88507 c -8.3437,-0.33821 -15.49395,-0.94018 -15.88945,-1.33771 -1.50668,-1.51444 4.61588,-7.53025 10.72365,-10.53668 8.24562,-4.05874 13.42934,-5.18626 23.98083,-5.21609 10.01012,-0.0283 18.82831,2.30041 26.04121,6.87698 5.50819,3.49494 8.65945,7.65325 7.03263,9.28007 -1.30255,1.30255 -30.03268,1.81938 -51.88887,0.93343 z m 14.42037,-29.82066 c 1.2375,-0.23836 3.2625,-0.23836 4.5,0 1.2375,0.23835 0.225,0.43337 -2.25,0.43337 -2.475,0 -3.4875,-0.19502 -2.25,-0.43337 z"
           id="path1202" />
        <path
           style="fill:#ebd55e"
           d="m -427.93695,732.0181 c 0.99549,-1.1 2.03498,-2 2.30998,-2 0.275,0 -0.31449,0.9 -1.30998,2 -0.99549,1.1 -2.03498,2 -2.30998,2 -0.275,0 0.31449,-0.9 1.30998,-2 z m 3.69495,-8.5 c 0.0204,-1.65 0.2445,-2.20394 0.49804,-1.23097 0.25354,0.97297 0.23687,2.32297 -0.0371,3 -0.27393,0.67703 -0.48137,-0.11903 -0.46099,-1.76903 z m -72.36111,-9.20021 c -1.38124,-1.66429 0.57715,-7.39782 3.44813,-10.09496 6.90314,-6.48517 21.97105,-9.69771 33.75563,-7.19685 10.47944,2.22389 19.42904,9.79347 18.733,15.84437 l -0.2706,2.35235 -27.32583,0.15874 c -20.47504,0.11894 -27.58018,-0.14772 -28.34033,-1.06365 z m 69.73045,-6.00666 c -0.54268,-1.4252 -0.42782,-1.54006 0.5598,-0.5598 0.68342,0.67834 0.99067,1.48524 0.68278,1.79313 -0.30789,0.30789 -0.86705,-0.24711 -1.24258,-1.23333 z m -83.06429,-8.29313 c 0.99549,-1.1 2.03498,-2 2.30998,-2 0.275,0 -0.31449,0.9 -1.30998,2 -0.99549,1.1 -2.03498,2 -2.30998,2 -0.275,0 0.31449,-0.9 1.30998,-2 z m 74.37244,-2.75 c -1.24387,-1.58606 -1.2085,-1.62143 0.37756,-0.37756 1.66575,1.30637 2.19548,2.12756 1.37244,2.12756 -0.20765,0 -0.99515,-0.7875 -1.75,-1.75 z m 81.94006,-40.93311 c 0.72187,-0.28887 1.58438,-0.25335 1.91667,0.0789 0.33229,0.33229 -0.25834,0.56864 -1.3125,0.52522 -1.16495,-0.048 -1.4019,-0.28494 -0.60417,-0.60416 z m -47.32128,-19.159 c -1.26054,-1.26054 -0.27921,-7.64689 1.57521,-10.25119 4.70153,-6.60268 18.77346,-12.9067 28.81055,-12.9067 6.17484,0 16.73809,2.99833 22.53802,6.39732 5.97084,3.49915 10.78631,9.97899 10.3823,13.97074 l -0.2973,2.9374 -31.25878,0.17182 c -17.19233,0.0945 -31.47983,-0.0492 -31.75,-0.31939 z m 24.50878,-18.15789 c 1.1647,-0.75269 0.87209,-0.9728 -1.30902,-0.98469 -1.62108,-0.009 -2.54765,0.40759 -2.19098,0.98469 0.76737,1.24163 1.57871,1.24163 3.5,0 z m 12.5,-1.528 c -4.76248,-1.56959 -9.5,-1.83965 -9.5,-0.54155 0,1.1533 3.12199,1.78759 9,1.82851 l 4.5,0.0313 -4,-1.31829 z m -50.4731,12.25566 c -0.0419,-1.20281 8.10524,-9.73498 10.41045,-10.90246 1.13446,-0.57454 0.56603,0.24224 -1.26318,1.81509 -1.8292,1.57284 -4.6296,4.43471 -6.2231,6.35971 -1.5935,1.925 -2.90937,3.15245 -2.92417,2.72766 z m 84.89741,-4.47766 -2.42431,-2.75 2.75,2.42431 c 2.57029,2.26589 3.20859,3.07569 2.42431,3.07569 -0.17912,0 -1.41662,-1.2375 -2.75,-2.75 z m -66.15014,-11.25374 c 1.80079,-1.09794 4.05079,-1.98638 5,-1.9743 0.94921,0.0121 -0.23581,0.91208 -2.63337,2 -5.57426,2.52938 -6.54014,2.51889 -2.36663,-0.0257 z m 8.72583,-2.99626 c 1.1,-0.47269 2.675,-0.85943 3.5,-0.85943 0.94548,0 0.76064,0.31771 -0.5,0.85943 -1.1,0.47269 -2.675,0.85943 -3.5,0.85943 -0.94548,0 -0.76064,-0.31771 0.5,-0.85943 z m 33,0 c -2.76761,-0.70424 -2.80634,-0.77135 -0.5,-0.86637 1.375,-0.0567 3.175,0.33321 4,0.86637 1.70194,1.09988 0.82246,1.09988 -3.5,0 z m -24,-2.15127 c 4.7602,-0.87287 13.83656,-0.86295 17.92976,0.0196 1.61136,0.34743 -2.66364,0.65018 -9.5,0.67279 -8.12943,0.0269 -11.04588,-0.21266 -8.42976,-0.69237 z m -52.37682,-51.87939 c -1.66686,-1.66687 -4.00318,-4.47937 -5.19181,-6.25 -1.18863,-1.77064 0.17783,-0.63184 3.03658,2.53066 5.92953,6.55956 8.34136,7.15055 12.24284,3 2.91734,-3.10358 12.10587,-17.19204 17.30958,-26.54018 3.48005,-6.2517 4.5318,-7.19113 2.24681,-2.00687 -1.98117,4.49496 -17.31419,27.79712 -19.83775,30.14817 -3.18196,2.96445 -6.2345,2.68996 -9.80625,-0.88178 z m 1.67588,-7.21934 c -6.54745,-8.08477 -11.93225,-15.85024 -11.61629,-16.75195 0.27143,-0.77462 15.71081,17.96144 16.65056,20.20585 0.96796,2.31176 -2.03151,0.2539 -5.03427,-3.4539 z m -15.7126,-11 c -3.32648,-4.5375 -6.05677,-8.63479 -6.06731,-9.10509 -0.0105,-0.4703 2.50615,2.6797 5.59263,7 3.08648,4.3203 6.06658,8.41759 6.62245,9.10509 0.55586,0.6875 0.76085,1.25 0.45552,1.25 -0.30533,0 -3.27681,-3.7125 -6.60329,-8.25 z m 31.69756,-3.53026 c -1.75274,-0.2233 -3.88067,-1.8251 -6,-4.5165 -5.87193,-7.45696 -15.57831,-14.70324 -19.69496,-14.70324 -0.93874,0 -2.58031,-0.64286 -3.64793,-1.42858 -1.91681,-1.41068 -1.91607,-1.43778 0.0589,-2.16273 1.1,-0.40377 3.19447,-1.56091 4.65437,-2.57142 1.4599,-1.0105 3.4849,-1.83503 4.5,-1.8323 1.47566,0.004 1.24426,0.48638 -1.15437,2.40654 l -3,2.40158 2.75,1.25397 c 1.5125,0.68968 2.75,1.5335 2.75,1.87514 0,0.34164 2.00662,1.21365 4.45915,1.9378 2.45253,0.72415 4.98263,1.94739 5.62244,2.71831 0.63982,0.77093 1.8957,1.40936 2.79085,1.41874 0.89516,0.009 3.83692,1.31768 6.53725,2.90734 5.4964,3.23567 7.02051,3.07815 9.09856,-0.94033 1.3105,-2.53424 1.24157,-3.06313 -0.7988,-6.12882 -1.42778,-2.14528 -4.57282,-4.50331 -8.72126,-6.53887 -3.5685,-1.751 -5.90334,-3.2135 -5.18853,-3.25 0.71481,-0.0365 2.51481,0.55162 4,1.30694 1.48519,0.75533 3.82534,1.67177 5.20034,2.03654 2.4153,0.64075 2.40683,0.61008 -0.25,-0.90525 -1.5125,-0.86266 -2.75,-1.79066 -2.75,-2.06222 0,-0.65303 4.97037,1.98714 7.5,3.98386 1.7111,1.35063 1.73892,1.48745 0.19258,0.94719 -1.50856,-0.52706 -1.38454,-0.008 0.75,3.13709 3.11946,4.59679 3.11732,4.45606 0.15641,10.27272 -3.11247,6.1144 -6.33046,8.88044 -9.81497,8.4365 z m -30.20107,-4.08553 c -0.43077,-0.697 -0.51316,-1.53733 -0.18309,-1.86741 0.89497,-0.89496 1.87077,0.4213 1.38739,1.87145 -0.33872,1.01617 -0.57427,1.01538 -1.2043,-0.004 z m 43.496,-9.71754 c 0.048,-1.16495 0.28494,-1.4019 0.60416,-0.60417 0.28887,0.72187 0.25335,1.58437 -0.0789,1.91667 -0.3323,0.33229 -0.56864,-0.25834 -0.52522,-1.3125 z m -52.07895,-4.09502 c 0,-0.55642 1.0125,-1.86892 2.25,-2.91666 l 2.25,-1.90499 -1.98934,2.5 c -1.09414,1.375 -2.10664,2.6875 -2.25,2.91667 -0.14336,0.22916 -0.26066,-0.0386 -0.26066,-0.59502 z m 25.75,-10.02738 c 1.2375,-0.23836 3.2625,-0.23836 4.5,0 1.2375,0.23835 0.225,0.43337 -2.25,0.43337 -2.475,0 -3.4875,-0.19502 -2.25,-0.43337 z"
           id="path1200" />
        <path
           style="fill:#a7a7a6"
           d="m -424.46734,712.7681 c -2.28736,-7.19821 -9.47352,-15.63397 -17.08203,-20.05241 -7.91613,-4.59708 -17.45359,-7.03158 -27.88758,-7.11847 -5.225,-0.0435 -11.75,0.24552 -14.5,0.6423 l -5,0.72141 -4.5,-6.20182 c -2.475,-3.411 -4.37744,-6.57833 -4.22764,-7.03851 0.1498,-0.46018 -0.60547,-3.84399 -1.67839,-7.51959 -3.31602,-11.36006 -5.10179,-26.00405 -4.97566,-40.80224 0.0651,-7.63437 0.41814,-15.23067 0.78458,-16.88067 0.36644,-1.65 0.6507,4.1604 0.63168,12.912 -0.0258,11.86352 0.28347,16.01921 1.21543,16.33334 0.6875,0.23173 1.25,1.00258 1.25,1.71299 0,1.57646 6.33735,3.02963 6.82552,1.56511 0.44365,-1.33096 4.47539,-1.32253 5.81006,0.0121 0.86498,0.86498 26.74532,1.12966 64.11442,0.65569 3.1035,-0.0394 3.68786,-0.64422 3.32465,-3.44127 -0.0893,-0.6875 0.3074,-1.25 0.88151,-1.25 0.57411,0 1.05385,-0.5625 1.06608,-1.25 0.0122,-0.6875 0.91715,-2.375 2.01095,-3.75 1.98475,-2.49501 1.98474,-2.49102 -2.8e-4,2 -1.14663,2.5942 -1.99829,6.72965 -2.01095,9.76469 -0.0191,4.57649 0.40287,5.71832 3.22804,8.73504 l 3.25,3.47037 30.84124,0.12185 30.84123,0.12185 -0.67785,3.61329 c -0.37283,1.9873 -1.38436,5.6517 -2.24785,8.1431 -0.8635,2.49139 -1.63643,5.25493 -1.71763,6.14119 -0.17944,1.9585 -8.11163,11.39446 -15.3417,18.25016 -6.91421,6.55619 -13.7042,11.07047 -23.63443,15.71317 -7.35927,3.44073 -24.47237,8.92533 -27.84879,8.92533 -0.76676,0 -2.00183,-1.9125 -2.74461,-4.25 z m -49.21961,-72.497 c 6.7375,-0.17301 17.7625,-0.17301 24.5,0 6.7375,0.17301 1.225,0.31456 -12.25,0.31456 -13.475,0 -18.9875,-0.14155 -12.25,-0.31456 z m 63.25,-16.753 c 1.29175,-1.375 2.57363,-2.5 2.84863,-2.5 0.275,0 -0.55688,1.125 -1.84863,2.5 -1.29175,1.375 -2.57363,2.5 -2.84863,2.5 -0.275,0 0.55688,-1.125 1.84863,-2.5 z m 61.19495,-14 c 0.0204,-1.65 0.2445,-2.20394 0.49804,-1.23097 0.25354,0.97297 0.23687,2.32297 -0.0371,3 -0.27393,0.67703 -0.48137,-0.11903 -0.46099,-1.76903 z m 18.884,-5.08333 c 0.048,-1.16495 0.28494,-1.4019 0.60416,-0.60417 0.28887,0.72187 0.25335,1.58437 -0.0789,1.91667 -0.33229,0.33229 -0.56864,-0.25834 -0.52522,-1.3125 z m -171.82677,-2.91667 c 0.0111,-2.2 0.21589,-2.98225 0.45508,-1.73834 0.23919,1.24391 0.23011,3.04391 -0.0202,4 -0.25029,0.95609 -0.446,-0.0617 -0.4349,-2.26166 z m 151.97982,0.5 c 0,-1.925 0.2058,-2.7125 0.45733,-1.75 0.25152,0.9625 0.25152,2.5375 0,3.5 -0.25153,0.9625 -0.45733,0.175 -0.45733,-1.75 z m -1.03705,-6.5 c 0.0204,-1.65 0.2445,-2.20394 0.49804,-1.23097 0.25354,0.97297 0.23687,2.32297 -0.0371,3 -0.27393,0.67703 -0.48137,-0.11903 -0.46099,-1.76903 z m -150.03706,-0.5 c 0,-1.375 0.22698,-1.9375 0.50439,-1.25 0.27741,0.6875 0.27741,1.8125 0,2.5 -0.27741,0.6875 -0.50439,0.125 -0.50439,-1.25 z m 149,-5 c 0,-1.375 0.22698,-1.9375 0.50439,-1.25 0.27741,0.6875 0.27741,1.8125 0,2.5 -0.27741,0.6875 -0.50439,0.125 -0.50439,-1.25 z M -500.358,589.43477 c 0.048,-1.16495 0.28494,-1.4019 0.60416,-0.60417 0.28887,0.72187 0.25335,1.58437 -0.0789,1.91667 -0.3323,0.33229 -0.56864,-0.25834 -0.52522,-1.3125 z m 147,-4 c 0.048,-1.16495 0.28494,-1.4019 0.60416,-0.60417 0.28887,0.72187 0.25335,1.58437 -0.0789,1.91667 -0.33229,0.33229 -0.56864,-0.25834 -0.52522,-1.3125 z m -1,-4 c 0.048,-1.16495 0.28494,-1.4019 0.60416,-0.60417 0.28887,0.72187 0.25335,1.58437 -0.0789,1.91667 -0.33229,0.33229 -0.56864,-0.25834 -0.52522,-1.3125 z m -168,-3 c 0.048,-1.16495 0.28494,-1.4019 0.60416,-0.60417 0.28888,0.72187 0.25335,1.58437 -0.079,1.91667 -0.33229,0.33229 -0.56864,-0.25834 -0.52522,-1.3125 z m 192.22071,-6.41667 c 0,-3.025 0.18747,-4.2625 0.41659,-2.75 0.22913,1.5125 0.22913,3.9875 0,5.5 -0.22912,1.5125 -0.41659,0.275 -0.41659,-2.75 z m -160.29966,-13.38299 c 0,-1.07319 2.97538,-6.61701 3.55136,-6.61701 0.275,0 -0.24379,1.4625 -1.15286,3.25 -1.85623,3.6499 -2.3985,4.41113 -2.3985,3.36701 z m 4,-8.55799 c 0,-0.51754 0.44485,-1.21592 0.98855,-1.55194 0.56686,-0.35034 0.7345,0.0511 0.39301,0.94098 -0.66479,1.73242 -1.38156,2.04939 -1.38156,0.61096 z m 110.87244,-14.80902 c -1.24387,-1.58606 -1.2085,-1.62143 0.37756,-0.37756 0.9625,0.75485 1.75,1.54235 1.75,1.75 0,0.82304 -0.82119,0.29331 -2.12756,-1.37244 z m -97.37244,-5.25 c 0.99549,-1.1 2.03498,-2 2.30998,-2 0.275,0 -0.31449,0.9 -1.30998,2 -0.99549,1.1 -2.03498,2 -2.30998,2 -0.275,0 0.31449,-0.9 1.30998,-2 z m 88.96241,-4.25 -4.96241,-5.25 5.25,4.96241 c 2.8875,2.72932 5.25,5.09182 5.25,5.25 0,0.74619 -0.92643,-0.084 -5.53759,-4.96241 z m -73.19866,3.53242 c 1.52006,-0.22986 3.77006,-0.22371 5,0.0136 1.22994,0.23736 -0.0137,0.42542 -2.76375,0.41792 -2.75,-0.008 -3.75631,-0.20172 -2.23625,-0.43157 z m -8.39131,-3.03242 c -1.24387,-1.58606 -1.2085,-1.62143 0.37756,-0.37756 0.9625,0.75485 1.75,1.54235 1.75,1.75 0,0.82304 -0.82119,0.29331 -2.12756,-1.37244 z m 2.53343,-1.87844 c -4.7708,-3.23755 -5.65621,-4.33472 -9.58028,-11.87156 -8.0723,-15.50421 -8.87405,-36.61522 -1.96894,-51.84412 4.46504,-9.84744 11.47657,-16.65588 17.15271,-16.65588 1.15977,0 1.8554,-0.40981 1.54584,-0.91069 -1.02081,-1.6517 10.11607,1.54043 13.31072,3.81521 5.88006,4.18698 11.85027,14.91194 13.54776,24.33738 0.66973,3.71871 0.65745,3.73564 -1.98136,2.73237 -1.98443,-0.75448 -3.4482,-0.63086 -5.79379,0.48932 l -3.13853,1.49886 3.20657,-2.76779 3.20657,-2.76779 -1.48884,-4.32139 c -2.48765,-7.22044 -5.61093,-11.72189 -10.40115,-14.99072 -7.0744,-4.82753 -13.32438,-3.96474 -19.72899,2.72353 -3.6703,3.83285 -7.23658,10.6893 -7.96548,15.31423 -0.27431,1.74051 -0.91048,4.24752 -1.41371,5.57113 -1.40811,3.7036 -1.08718,13.93334 0.66547,21.21246 2.95779,12.28429 7.83165,19.59195 15.13744,22.69648 3.93332,1.67143 3.83601,1.67066 5.46361,0.0431 1.09914,-1.09914 1.32386,-0.50446 1.32143,3.4969 l -0.003,4.82126 -3.61045,0.003 c -2.25317,0.002 -5.06653,-0.98502 -7.48368,-2.62534 z m 59.96522,-10.73572 c -1.7236,-1.83285 -5.92837,-4.4473 -9.36183,-5.821 l -6.23291,-2.49375 2.61731,-2.05878 c 1.43952,-1.13233 3.27223,-3.56707 4.07268,-5.41054 0.80046,-1.84348 1.47299,-2.77482 1.49452,-2.06965 0.0215,0.70516 -0.63586,2.89762 -1.46086,4.87212 -0.825,1.97451 -1.5,3.90231 -1.5,4.28402 0,0.3817 2.64824,1.95975 5.88498,3.50677 4.95693,2.36919 6.75426,2.73028 11.39724,2.28974 7.71711,-0.73222 12.0533,-3.94375 16.02061,-11.8654 5.81399,-11.60901 3.39647,-23.10828 -6.50325,-30.93356 -5.25123,-4.15086 -9.83616,-5.52673 -15.11625,-4.53618 -4.02709,0.75549 -10.51454,4.86142 -13.02925,8.24627 -1.67653,2.25664 -1.70297,2.6426 -0.28814,4.20597 1.97416,2.18142 4.93249,9.18303 4.19264,9.92288 -0.30722,0.30722 -0.55858,-0.0564 -0.55858,-0.80808 0,-1.06297 -0.26667,-1.1 -1.2,-0.16667 -0.66,0.66 -1.6946,1.2 -2.29911,1.2 -1.48665,0 -3.69177,-6.33901 -2.912,-8.37105 0.45574,-1.18764 0.0543,-1.62895 -1.4819,-1.62895 -2.89616,0 -2.64122,-1.96244 0.88782,-6.83414 5.82091,-8.03553 15.66772,-12.27974 24.01792,-10.35228 9.23556,2.13182 15.71916,7.75643 19.87462,17.24148 3.26942,7.46259 3.56055,12.67845 1.11318,19.94336 -3.37558,10.02027 -7.89414,15.59041 -15.50053,19.1079 -6.26038,2.89504 -10.4319,2.46089 -14.12891,-1.47048 z m -12.26064,-33.92539 c -1.7303,-1.7303 -2.38819,-0.0917 -0.98522,2.4539 1.15523,2.09606 1.32703,2.14524 1.6748,0.47943 0.21314,-1.02092 -0.0972,-2.34092 -0.68958,-2.93333 z m -35.32596,35.1663 c 0.68751,-0.89279 0.98479,-2.31442 0.66062,-3.15919 -0.41589,-1.08381 0.38853,-1.8902 2.73275,-2.73944 5.08993,-1.84393 6.95443,-4.91515 5.71313,-9.41074 -0.5588,-2.02383 -0.81508,-4.44192 -0.5695,-5.37354 0.31105,-1.17998 0.4817,-0.99619 0.56251,0.60582 0.13171,2.61107 2.66549,7.89269 4.82001,10.04721 1.25955,1.25955 0.65035,1.86906 -4.75436,4.75674 -3.40946,1.82165 -7.14765,4.11856 -8.3071,5.10424 -1.58945,1.35124 -1.80055,1.39279 -0.85806,0.1689 z m 200.21551,0.74569 c 0,-0.20765 0.7875,-0.99515 1.75,-1.75 1.58606,-1.24387 1.62143,-1.2085 0.37756,0.37756 -1.30637,1.66575 -2.12756,2.19548 -2.12756,1.37244 z m -56,-7 c 0,-0.20765 0.7875,-0.99515 1.75,-1.75 1.58606,-1.24387 1.62143,-1.2085 0.37756,0.37756 -1.30637,1.66575 -2.12756,2.19548 -2.12756,1.37244 z m 8.5,-9.62244 c 2.14824,-2.2 4.1309,-4 4.4059,-4 0.275,0 -1.25766,1.8 -3.4059,4 -2.14824,2.2 -4.1309,4 -4.4059,4 -0.275,0 1.25766,-1.8 3.4059,-4 z m -249.62756,0.25 c -1.24387,-1.58606 -1.2085,-1.62143 0.37756,-0.37756 0.9625,0.75485 1.75,1.54235 1.75,1.75 0,0.82304 -0.82119,0.29331 -2.12756,-1.37244 z m -5,-6 c -1.24387,-1.58606 -1.2085,-1.62143 0.37756,-0.37756 0.9625,0.75485 1.75,1.54235 1.75,1.75 0,0.82304 -0.82119,0.29331 -2.12756,-1.37244 z m 110.20651,-9.83333 c 0.048,-1.16495 0.28494,-1.4019 0.60416,-0.60417 0.28887,0.72187 0.25335,1.58437 -0.0789,1.91667 -0.3323,0.33229 -0.56864,-0.25834 -0.52522,-1.3125 z m 9.46339,-1.96957 c -2.0463,-4.89751 -1.94476,-6.4471 0.42248,-6.4471 2.42203,0 4.2632,3.21743 3.84683,6.72233 -0.47354,3.98618 -2.54456,3.85266 -4.26931,-0.27523 z m 3.45766,0.1 c 0,-1.27583 -2.43359,-5.54705 -3.16052,-5.54705 -1.13929,0 -1.05619,1.72656 0.1957,4.06574 0.90792,1.69645 2.96482,2.72414 2.96482,1.48131 z m 80.07895,1.86962 c 0.048,-1.16495 0.28494,-1.4019 0.60416,-0.60417 0.28887,0.72187 0.25335,1.58437 -0.0789,1.91667 -0.33229,0.33229 -0.56864,-0.25834 -0.52522,-1.3125 z m -155,-11 c 0.048,-1.16495 0.28494,-1.4019 0.60416,-0.60417 0.28887,0.72187 0.25335,1.58437 -0.0789,1.91667 -0.3323,0.33229 -0.56864,-0.25834 -0.52522,-1.3125 z m 90.92105,-20.35715 c 0,-2.07163 4.4773,-6.07639 8.51909,-7.61996 5.41673,-2.06867 13.39025,-1.53829 18.23348,1.21285 2.80937,1.59583 5.14078,4.89593 4.08874,5.78758 -0.8481,0.71879 -30.84131,1.32128 -30.84131,0.61953 z m -61,-5.22065 c 0,-3.28785 6.04426,-9.62326 12,-12.57804 7.33921,-3.64115 19.66407,-0.78855 23.78186,5.50434 l 1.48223,2.26518 -5.38204,-2.50541 c -9.72594,-4.52753 -19.09673,-2.84298 -27.76906,4.99194 -2.4062,2.17387 -4.11299,3.13743 -4.11299,2.32199 z m 42.5,-18.63214 c -1.65,-0.20487 -6.48938,-1.20228 -10.75417,-2.21648 -7.74837,-1.84262 -10.33378,-1.89605 -22.97504,-0.47485 -5.43502,0.61103 -6.8354,0.47981 -7.28134,-0.6823 -1.73606,-4.52409 9.30837,-17.82683 19.18603,-23.10911 24.62225,-13.16726 58.82658,-5.98239 72.46501,15.22179 1.57273,2.44518 2.85951,5.42758 2.85951,6.62756 0,4.60539 -1.72603,4.92401 -26.90326,4.96626 -12.97821,0.0218 -24.94674,-0.12801 -26.59674,-0.33287 z m 39.7185,-14.02523 c 1.62682,-1.62682 -1.52444,-5.78513 -7.03263,-9.28007 -7.2129,-4.57657 -16.03109,-6.90529 -26.04121,-6.87698 -10.55149,0.0298 -15.73521,1.15735 -23.98083,5.21609 -6.10777,3.00643 -12.23033,9.02224 -10.72365,10.53668 2.01076,2.02111 65.78112,2.40148 67.77832,0.40428 z m -87.2185,-2.55906 c 0,-0.20765 0.7875,-0.99515 1.75,-1.75 1.58606,-1.24387 1.62143,-1.2085 0.37756,0.37756 -1.30637,1.66575 -2.12756,2.19548 -2.12756,1.37244 z m 102.40499,-1.87244 -1.90499,-2.25 2.25,1.90499 c 1.2375,1.04774 2.25,2.06024 2.25,2.25 0,0.80025 -0.80479,0.20945 -2.59501,-1.90499 z m -5,-5 -1.90499,-2.25 2.25,1.90499 c 1.2375,1.04774 2.25,2.06024 2.25,2.25 0,0.80025 -0.80479,0.20945 -2.59501,-1.90499 z"
           id="path1198" />
        <path
           style="fill:#e4c621"
           d="m -492.91246,724.13488 c -2.88458,-0.44753 -4.3212,-1.30281 -5.23526,-3.11678 -1.79127,-3.55482 -1.65736,-12.44959 0.21077,-14 0.825,-0.68469 1.5,-2.03469 1.5,-3 0,-0.96531 0.75925,-2.37271 1.68723,-3.12756 1.47308,-1.19824 1.60612,-1.15588 1.0482,0.33374 -0.48086,1.28389 0.31109,1.03638 3.19974,-1 2.11132,-1.4884 3.67841,-2.9784 3.48244,-3.31111 -0.19598,-0.33271 0.86738,-0.66616 2.36303,-0.741 1.49565,-0.0748 6.99436,-0.39887 12.21936,-0.72008 5.225,-0.32121 10.48565,-0.21276 11.69033,0.241 1.38765,0.52267 -1.54409,0.82501 -8,0.82501 -9.07698,0 -10.84554,0.30676 -16.18738,2.80778 -3.29838,1.54428 -6.99782,3.74795 -8.22098,4.89705 -2.87098,2.69714 -4.82937,8.43067 -3.44813,10.09496 0.76015,0.91593 7.86529,1.18259 28.34033,1.06365 l 27.32583,-0.15874 0.2706,-2.35235 c 0.40322,-3.50532 -3.16733,-8.51381 -8.46426,-11.87303 -2.58384,-1.63862 -4.19478,-2.97932 -3.57986,-2.97932 1.89358,0 9.62491,6.3977 12.01211,9.94005 4.10695,6.09431 2.57,14.3561 -2.94097,15.80905 -3.78718,0.99848 -43.30653,1.29338 -49.27313,0.36768 z m 68.55446,-4.70011 c 0.048,-1.16495 0.28494,-1.4019 0.60416,-0.60417 0.28887,0.72187 0.25335,1.58438 -0.0789,1.91667 -0.3323,0.33229 -0.56864,-0.25834 -0.52522,-1.3125 z m -67.07895,-21.41667 c 0,-0.55 0.70156,-1 1.55902,-1 0.85746,0 1.2809,0.45 0.94098,1 -0.33992,0.55 -1.04148,1 -1.55902,1 -0.51754,0 -0.94098,-0.45 -0.94098,-1 z m 34.8125,-0.68311 c 0.72187,-0.28887 1.58437,-0.25335 1.91667,0.0789 0.33229,0.33229 -0.25834,0.56864 -1.3125,0.52522 -1.16495,-0.048 -1.4019,-0.28494 -0.60417,-0.60416 z m 114.9375,-41.97917 c 0.6875,-0.27741 1.8125,-0.27741 2.5,0 0.6875,0.27741 0.125,0.50439 -1.25,0.50439 -1.375,0 -1.9375,-0.22698 -1.25,-0.50439 z m 8.0625,-0.0208 c 0.72187,-0.28887 1.58438,-0.25335 1.91667,0.0789 0.33229,0.33229 -0.25834,0.56864 -1.3125,0.52522 -1.16495,-0.048 -1.4019,-0.28494 -0.60417,-0.60416 z m -40.62288,-8.08419 c -28.26181,-0.29847 -28.37822,-0.32719 -29.68286,-7.32347 -1.06928,-5.73413 0.95762,-11.16079 5.85461,-15.67468 2.39253,-2.20536 5.42749,-4.52332 6.74434,-5.15103 2.33609,-1.11355 2.33352,-1.09898 -0.10571,0.5992 -1.375,0.95727 -4.21123,3.48916 -6.30273,5.62642 -3.34629,3.41951 -3.7664,4.38436 -3.5,8.0384 l 0.30273,4.15243 31.5,-0.0901 31.5,-0.0901 0.2973,-2.94459 c 0.41997,-4.15955 -4.55205,-10.62073 -11.03301,-14.33747 -2.89536,-1.66046 -4.78989,-3.02323 -4.21007,-3.0284 1.58512,-0.0141 10.4723,5.82665 12.64781,8.31229 4.81654,5.50315 5.87772,11.76824 2.99436,17.67833 -1.54401,3.16479 -2.18589,3.54789 -6.70197,4 -2.74693,0.275 -16.38409,0.37972 -30.3048,0.2327 z m -43.95762,-4.23273 c 0,-1.925 0.2058,-2.7125 0.45733,-1.75 0.25152,0.9625 0.25152,2.5375 0,3.5 -0.25153,0.9625 -0.45733,0.175 -0.45733,-1.75 z m 32.62438,-26.62785 c 1.84601,-0.80559 4.77101,-1.68458 6.5,-1.95333 1.72899,-0.26874 0.44362,0.42045 -2.85638,1.53155 -6.95768,2.34262 -8.43789,2.51397 -3.64362,0.42178 z m 23.14362,-1.37215 c -2.00973,-0.64363 -2.10779,-0.8064 -0.5,-0.83003 1.1,-0.0162 2.9,0.35734 4,0.83003 2.54822,1.09501 -0.0808,1.09501 -3.5,0 z m -3.25,-5.66228 c 0.6875,-0.27741 1.8125,-0.27741 2.5,0 0.6875,0.27741 0.125,0.50439 -1.25,0.50439 -1.375,0 -1.9375,-0.22698 -1.25,-0.50439 z m -62.42181,-57.08772 c -4.67576,-4.99098 -16.03078,-20.71802 -18.84646,-26.10291 -2.56573,-4.90687 -2.64732,-5.41007 -1.12413,-6.93327 0.90332,-0.90331 1.6424,-1.18082 1.6424,-0.61667 0,0.56415 0.79156,1.89808 1.75902,2.96429 0.96746,1.06621 4.16006,5.20106 7.09466,9.18856 2.9346,3.9875 5.74304,7.25 6.24098,7.25 0.49794,0 0.90534,0.87764 0.90534,1.95031 0,1.07267 0.59342,2.31017 1.3187,2.75 1.66864,1.0119 7.6813,9.80226 7.6813,11.22987 0,2.07529 -4.12727,1.03591 -6.67181,-1.68018 z m 4.50514,0.9539 c -0.93975,-2.24441 -16.37913,-20.98047 -16.65056,-20.20585 -0.54892,1.56655 14.27709,21.00195 16.02103,21.00195 0.52957,0 0.81287,-0.35824 0.62953,-0.7961 z m -18.22916,-23.93307 c -1.01652,-1.01651 -1.85525,0.51389 -1.02122,1.86338 0.63003,1.01942 0.86558,1.02021 1.2043,0.004 0.2316,-0.69479 0.14921,-1.53513 -0.18308,-1.86742 z m 16.50951,13.36615 c -0.60298,-0.72655 -0.80023,-1.61709 -0.43834,-1.97899 0.3619,-0.36189 -0.31701,-0.65799 -1.50867,-0.65799 -2.041,0 -2.92976,-2.25336 -2.16928,-5.5 1.12036,-4.78301 -1.42826,-10.58781 -3.96127,-9.02232 -0.80748,0.49905 -0.6161,1.10896 0.63502,2.0238 1.61672,1.18218 1.53681,1.26093 -0.82196,0.81002 -3.58807,-0.6859 -2.75325,-4.28114 1.01745,-4.38179 2.36957,-0.0632 2.43302,-0.15638 0.63337,-0.92971 l -2,-0.85943 2,-0.0769 c 1.69521,-0.0652 1.54282,-0.37983 -1,-2.06479 -1.65,-1.09336 -5.09823,-2.68851 -7.66273,-3.54479 -4.77793,-1.59535 -7.06901,-4.02555 -3.79508,-4.02555 0.99822,0 1.7346,0.4336 1.63638,0.96356 -0.0982,0.52995 1.17143,1.39501 2.82143,1.92233 8.18104,2.61461 15.23647,7.70854 21.24336,15.33744 5.85381,7.43447 10.93994,6.02346 16.21638,-4.49881 1.19888,-2.39079 2.42027,-4.10641 2.7142,-3.81249 0.69043,0.69043 -6.80508,14.6018 -7.73182,14.34996 -0.38568,-0.10481 -1.85691,1.04474 -3.2694,2.55456 -2.24018,2.39453 -2.91548,2.61308 -5.28748,1.71125 -1.5567,-0.59186 -2.96854,-0.65378 -3.30227,-0.14483 -0.32063,0.48898 -1.54822,1.39696 -2.72796,2.01774 -1.65387,0.87026 -2.39602,0.82623 -3.24133,-0.1923 z m -1.11368,-13.07796 c 0,-0.24254 -0.45,-0.7191 -1,-1.05902 -0.55,-0.33992 -1,-0.14148 -1,0.44098 0,0.58246 0.45,1.05902 1,1.05902 0.55,0 1,-0.19844 1,-0.44098 z m -25.92105,-7.14235 c 0.048,-1.16495 0.28494,-1.4019 0.60416,-0.60417 0.28887,0.72187 0.25335,1.58437 -0.0789,1.91667 -0.3323,0.33229 -0.56864,-0.25834 -0.52522,-1.3125 z m 46.61529,-8.94827 c -3.64603,-3.20763 -2.10757,-3.20711 1.80576,6e-4 1.65,1.35249 2.55,2.46104 2,2.46344 -0.55,0.002 -2.26259,-1.10642 -3.80576,-2.46404 z m -35.69424,-1.86141 c 0,-0.21616 0.69837,-0.661 1.55194,-0.98855 0.88992,-0.34149 1.29132,-0.17385 0.94098,0.39301 -0.58726,0.95021 -2.49292,1.40545 -2.49292,0.59554 z m 30,-1.66601 c 0,-0.58246 -0.45,-0.7809 -1,-0.44098 -0.55,0.33992 -1,0.14148 -1,-0.44098 0,-1.52935 1.5544,-1.30086 3,0.44098 0.8601,1.03636 0.89795,1.5 0.12244,1.5 -0.61734,0 -1.12244,-0.47656 -1.12244,-1.05902 z m -4.33333,-1.60765 c -0.36667,-0.36666 -0.66667,-1.13166 -0.66667,-1.7 0,-0.6266 0.46577,-0.56756 1.18333,0.15 0.65084,0.65084 0.95084,1.41584 0.66667,1.7 -0.28417,0.28417 -0.81667,0.21667 -1.18333,-0.15 z m -16.41667,-1.02266 c 0.9625,-0.25152 2.5375,-0.25152 3.5,0 0.9625,0.25153 0.175,0.45733 -1.75,0.45733 -1.925,0 -2.7125,-0.2058 -1.75,-0.45733 z"
           id="path1196" />
        <path
           style="fill:#d7ac0a"
           d="m -511.0492,734.34686 c -2.81938,-0.5763 -6.85807,-5.05693 -8.21,-9.1084 -1.56543,-4.6913 1.64748,-14.55456 6.90958,-21.21162 3.97398,-5.02747 12.4947,-11.29559 18.41267,-13.54497 1.65,-0.62715 4.8,-1.9666 7,-2.97655 5.59396,-2.56802 23.58104,-2.63595 32,-0.12085 13.63147,4.07228 23.62307,12.05196 28.8114,23.0099 2.29746,4.85229 2.45232,5.96557 1.68758,12.13192 -0.65684,5.29638 -1.4138,7.36138 -3.44228,9.39059 l -2.60028,2.60122 -39.22821,0.13026 c -21.57552,0.0716 -40.17872,-0.064 -41.34046,-0.3015 z m 67.40987,-10.57966 c 3.56935,-0.94105 5.20238,-3.72341 5.20238,-8.86386 0,-7.31244 -7.64505,-14.8014 -18.37071,-17.99564 -5.76666,-1.71739 -8.53828,-1.97101 -16.04982,-1.46868 -4.99371,0.33395 -10.30318,0.66614 -11.79883,0.7382 -1.49565,0.0721 -2.55901,0.40324 -2.36303,0.73595 0.19597,0.33271 -1.37112,1.82271 -3.48244,3.31111 -2.88865,2.03638 -3.6806,2.28389 -3.19974,1 0.55792,-1.48962 0.42488,-1.53198 -1.0482,-0.33374 -0.92798,0.75485 -1.68723,2.16225 -1.68723,3.12756 0,0.96531 -0.675,2.31531 -1.5,3 -1.86813,1.55041 -2.00204,10.44518 -0.21077,14 0.91406,1.81397 2.35068,2.66925 5.23526,3.11678 5.9666,0.9257 45.48595,0.6308 49.27313,-0.36768 z m -45.29762,-25.7491 c 0.33992,-0.55 -0.0835,-1 -0.94098,-1 -0.85746,0 -1.55902,0.45 -1.55902,1 0,0.55 0.42344,1 0.94098,1 0.51754,0 1.2191,-0.45 1.55902,-1 z m 76.2839,-43.6832 c -9.29138,-5.9485 -5.11374,-23.51598 7.95867,-33.46718 7.14805,-5.44136 14.65108,-8.49803 25.75743,-10.49335 11.37064,-2.04281 25.59819,-0.11024 36.41654,4.94656 14.55726,6.80447 24.1727,23.36782 19.73346,33.99242 -2.58848,6.1951 -2.13299,6.13202 -46.65,6.46108 -37.07508,0.27405 -40.72969,0.15231 -43.2161,-1.43953 z m 75.41249,-11.3168 c 5.29359,-10.85038 -2.75895,-21.92384 -19.9831,-27.4798 -8.17013,-2.63542 -22.94211,-1.8348 -30.38844,1.64699 -11.77889,5.50765 -17.93263,14.08393 -16.31809,22.74204 1.30464,6.99628 1.42105,7.025 29.68286,7.32347 13.92071,0.14702 27.55787,0.0423 30.3048,-0.2327 4.51608,-0.45211 5.15796,-0.83521 6.70197,-4 z m -93.68441,-88.29187 c -1.97315,-2.36053 -7.60505,-9.80676 -12.51533,-16.54719 -7.97802,-10.95157 -8.86305,-12.59604 -8.31939,-15.45813 1.09437,-5.76129 3.19412,-8.47949 9.55559,-12.36999 5.96038,-3.64521 6.74441,-3.84964 16.01715,-4.17653 5.3625,-0.18904 9.75106,0.036 9.75235,0.5 10e-4,0.46404 -3.5982,0.69696 -7.99887,0.5176 -7.40194,-0.30169 -8.48815,-0.0788 -14.50235,2.97633 -3.57562,1.81635 -6.50113,3.61444 -6.50113,3.99575 0,0.38131 2.1375,1.40693 4.75,2.27916 2.6125,0.87222 6.1,2.48042 7.75,3.57378 2.54282,1.68496 2.69521,1.99963 1,2.06479 l -2,0.0769 2,0.85943 c 1.79965,0.77333 1.7362,0.86647 -0.63337,0.92971 -3.7707,0.10065 -4.60552,3.69589 -1.01745,4.38179 2.35877,0.45091 2.43868,0.37216 0.82196,-0.81002 -1.25112,-0.91484 -1.4425,-1.52475 -0.63502,-2.0238 2.53301,-1.56549 5.08163,4.23931 3.96127,9.02232 -0.76048,3.24664 0.12828,5.5 2.16928,5.5 1.19166,0 1.87057,0.2961 1.50867,0.65799 -0.36189,0.3619 -0.16464,1.25244 0.43834,1.97899 0.84531,1.01853 1.58746,1.06256 3.24133,0.1923 1.17974,-0.62078 2.40733,-1.52876 2.72796,-2.01774 0.33364,-0.50881 1.74871,-0.44583 3.30862,0.14724 2.42783,0.92306 3.04704,0.68441 5.66703,-2.1841 4.61243,-5.04997 3.49477,-2.51147 -3.64933,8.28858 -9.02295,13.64038 -11.10012,14.58016 -16.89731,7.64487 z m 9.48802,-0.77795 c 0,-1.42761 -6.01266,-10.21797 -7.6813,-11.22987 -0.72528,-0.43983 -1.3187,-1.67733 -1.3187,-2.75 0,-1.07267 -0.4074,-1.95031 -0.90534,-1.95031 -0.49794,0 -3.30638,-3.2625 -6.24098,-7.25 -2.9346,-3.9875 -6.1272,-8.12235 -7.09466,-9.18856 -0.96746,-1.06621 -1.75902,-2.40014 -1.75902,-2.96429 0,-0.56415 -0.73908,-0.28664 -1.6424,0.61667 -1.52319,1.5232 -1.4416,2.0264 1.12413,6.93327 2.81568,5.38489 14.1707,21.11193 18.84646,26.10291 2.54454,2.71609 6.67181,3.75547 6.67181,1.68018 z m -7,-24.9892 c 0,-0.58246 0.45,-0.7809 1,-0.44098 0.55,0.33992 1,0.81648 1,1.05902 0,0.24254 -0.45,0.44098 -1,0.44098 -0.55,0 -1,-0.47656 -1,-1.05902 z m 27.04584,-10.85533 c -0.6143,-1.14784 -0.69884,-2.08565 -0.18801,-2.08565 1.02776,0 2.44663,3.02888 1.74673,3.72877 -0.24339,0.24339 -0.94481,-0.49602 -1.55872,-1.64312 z"
           id="path1194" />
        <path
           style="fill:#5d5d5c"
           d="m -500.80661,669.7681 c -4.67997,-7.34564 -6.65645,-11.39056 -5.92379,-12.12322 0.34473,-0.34473 0.15638,-0.62678 -0.41856,-0.62678 -1.17911,0 -3.44448,-4.94443 -3.7989,-8.29154 -0.39276,-3.70929 -0.45651,-3.84663 -1.48909,-3.20846 -0.55,0.33992 -1,0.17898 -1,-0.35765 0,-0.53663 0.51453,-1.14719 1.1434,-1.35682 0.81207,-0.27069 0.84631,-0.94682 0.11816,-2.33333 -0.62748,-1.19484 -0.68565,-2.85204 -0.14992,-4.27166 0.69358,-1.83792 1.34378,-2.17325 3.13183,-1.61522 1.24109,0.38733 2.58714,1.20609 2.99122,1.81946 0.40408,0.61337 0.81879,-4.95978 0.9216,-12.38478 l 0.18691,-13.5 0.71767,17.5 c 0.73565,17.93827 2.30354,28.75225 5.76326,39.75 1.08138,3.4375 1.78275,6.25 1.55859,6.25 -0.22416,0 -1.91273,-2.3625 -3.75238,-5.25 z m 145.36966,5.02436 c 0,-0.18902 0.86134,-2.80308 1.91408,-5.80902 1.05275,-3.00594 2.22783,-7.15284 2.61129,-9.21534 0.61485,-3.30699 1.03847,-3.75 3.58592,-3.75 1.58879,0 2.88871,0.52295 2.88871,1.16211 0,1.4091 -8.8199,16.60855 -10.09478,17.39647 -0.49787,0.3077 -0.90522,0.4048 -0.90522,0.21578 z m 22.56429,-55.06749 c 0.37553,-0.98622 0.93469,-1.54122 1.24258,-1.23333 0.30789,0.30789 6.4e-4,1.11479 -0.68278,1.79313 -0.98762,0.98026 -1.10248,0.8654 -0.5598,-0.5598 z m -188.48534,-6.2902 c 0.048,-1.16495 0.28494,-1.4019 0.60416,-0.60417 0.28888,0.72187 0.25335,1.58437 -0.079,1.91667 -0.33229,0.33229 -0.56864,-0.25834 -0.52522,-1.3125 z m 175.92105,0.58333 c -0.825,-0.53316 -1.05,-0.96937 -0.5,-0.96937 0.55,0 1.675,0.43621 2.5,0.96937 0.825,0.53316 1.05,0.96937 0.5,0.96937 -0.55,0 -1.675,-0.43621 -2.5,-0.96937 z m -2.80505,-3.5 c 0.0204,-1.65 0.2445,-2.20394 0.49804,-1.23097 0.25354,0.97297 0.23687,2.32297 -0.0371,3 -0.27393,0.67703 -0.48137,-0.11903 -0.46099,-1.76903 z m 16.96294,0.5 c 0,-1.375 0.22698,-1.9375 0.50439,-1.25 0.27741,0.6875 0.27741,1.8125 0,2.5 -0.27741,0.6875 -0.50439,0.125 -0.50439,-1.25 z m -172.92126,-2 c 0,-1.375 0.34352,-3.85 0.76337,-5.5 0.68093,-2.67601 0.76337,-2.73001 0.76337,-0.5 0,1.375 -0.34352,3.85 -0.76337,5.5 -0.68093,2.67601 -0.76337,2.73001 -0.76337,0.5 z m 154.95832,-4.5 c 0.0204,-1.65 0.2445,-2.20394 0.49804,-1.23097 0.25354,0.97297 0.23687,2.32297 -0.0371,3 -0.27393,0.67703 -0.48137,-0.11903 -0.46099,-1.76903 z m -172.96295,-2.5 c 0,-1.925 0.2058,-2.7125 0.45733,-1.75 0.25152,0.9625 0.25152,2.5375 0,3.5 -0.25153,0.9625 -0.45733,0.175 -0.45733,-1.75 z m 192.15972,-12 c 0,-7.425 0.15742,-10.4625 0.34983,-6.75 0.19241,3.7125 0.19241,9.7875 0,13.5 -0.19241,3.7125 -0.34983,0.675 -0.34983,-6.75 z m -20.19677,6.5 c 0.0204,-1.65 0.2445,-2.20394 0.49804,-1.23097 0.25354,0.97297 0.23687,2.32297 -0.0371,3 -0.27393,0.67703 -0.48137,-0.11903 -0.46099,-1.76903 z m -152.03706,-0.5 c 0,-1.375 0.22698,-1.9375 0.50439,-1.25 0.27741,0.6875 0.27741,1.8125 0,2.5 -0.27741,0.6875 -0.50439,0.125 -0.50439,-1.25 z m 1,-5 c 0,-1.375 0.22698,-1.9375 0.50439,-1.25 0.27741,0.6875 0.27741,1.8125 0,2.5 -0.27741,0.6875 -0.50439,0.125 -0.50439,-1.25 z m 149.92106,0.41667 c 0.048,-1.16495 0.28494,-1.4019 0.60416,-0.60417 0.28887,0.72187 0.25335,1.58437 -0.0789,1.91667 -0.33229,0.33229 -0.56864,-0.25834 -0.52522,-1.3125 z m -149,-5 c 0.048,-1.16495 0.28494,-1.4019 0.60416,-0.60417 0.28887,0.72187 0.25335,1.58437 -0.0789,1.91667 -0.3323,0.33229 -0.56864,-0.25834 -0.52522,-1.3125 z m 148,0 c 0.048,-1.16495 0.28494,-1.4019 0.60416,-0.60417 0.28887,0.72187 0.25335,1.58437 -0.0789,1.91667 -0.33229,0.33229 -0.56864,-0.25834 -0.52522,-1.3125 z m -169.84695,-3.41667 c 0,-1.925 0.2058,-2.7125 0.45733,-1.75 0.25152,0.9625 0.25152,2.5375 0,3.5 -0.25153,0.9625 -0.45733,0.175 -0.45733,-1.75 z m 22.93797,-0.5 c -0.0162,-1.1 0.35734,-2.9 0.83003,-4 1.09501,-2.54822 1.09501,0.0808 0,3.5 -0.64363,2.00973 -0.8064,2.10779 -0.83003,0.5 z m 145.90898,-0.0833 c 0.048,-1.16495 0.28494,-1.4019 0.60416,-0.60417 0.28887,0.72187 0.25335,1.58437 -0.0789,1.91667 -0.33229,0.33229 -0.56864,-0.25834 -0.52522,-1.3125 z m -2.50752,-7.9881 c -0.36782,-1.46551 -0.47591,-2.85742 -0.24019,-3.09314 0.23571,-0.23571 0.72951,0.77049 1.09733,2.236 0.36782,1.46551 0.47591,2.85742 0.24019,3.09314 -0.23571,0.23571 -0.72951,-0.77049 -1.09733,-2.236 z m -141.48583,0.5714 c -0.0302,-0.825 0.38124,-2.175 0.9144,-3 1.18132,-1.82797 1.18132,-0.24909 0,2.5 -0.56668,1.31874 -0.87815,1.48906 -0.9144,0.5 z m -23.81324,-8 c 0,-2.475 0.19502,-3.4875 0.43337,-2.25 0.23836,1.2375 0.23836,3.2625 0,4.5 -0.23835,1.2375 -0.43337,0.225 -0.43337,-2.25 z m 162.39431,-1.16667 c -0.90484,-2.30349 -1.48133,-4.352 -1.2811,-4.55224 0.20024,-0.20023 1.11423,1.51077 2.0311,3.80224 0.91686,2.29147 1.49335,4.33998 1.28109,4.55224 -0.21226,0.21227 -1.12625,-1.49874 -2.03109,-3.80224 z m -135.59603,0.93691 c -0.11459,-1.18386 3.14313,-8.8898 3.57544,-8.45749 0.21765,0.21764 -0.4819,2.37381 -1.55454,4.79148 -1.07265,2.41768 -1.98205,4.06738 -2.0209,3.66601 z m 165.00831,-7.35357 c 0.048,-1.16495 0.28494,-1.4019 0.60416,-0.60417 0.28887,0.72187 0.25335,1.58437 -0.0789,1.91667 -0.33229,0.33229 -0.56864,-0.25834 -0.52522,-1.3125 z m -34.87082,-5.94879 c -1.7542,-3.55734 -2.97514,-6.46788 -2.71319,-6.46788 0.67013,0 6.71644,12.12196 6.26933,12.56907 -0.20168,0.20167 -1.80194,-2.54386 -3.55614,-6.10119 z m -123.64384,-1.76101 c 0.37553,-0.98622 0.93469,-1.54122 1.24258,-1.23333 0.30789,0.30789 6.4e-4,1.11479 -0.68278,1.79313 -0.98762,0.98026 -1.10248,0.8654 -0.5598,-0.5598 z m 2.43571,-4.70687 c 0.5887,-1.1 1.29537,-2 1.57037,-2 0.275,0 0.0183,0.9 -0.57037,2 -0.5887,1.1 -1.29537,2 -1.57037,2 -0.275,0 -0.0183,-0.9 0.57037,-2 z m 113.51128,-7.62312 c -0.9453,-1.44272 -1.22448,-2.31766 -0.62038,-1.94431 1.15439,0.71346 3.48267,4.56743 2.75929,4.56743 -0.23109,0 -1.1936,-1.18041 -2.13891,-2.62312 z m -104.54402,-5.84979 c 0.807,-1.1149 2.9842,-3.66172 4.83823,-5.6596 l 3.37096,-3.63251 -3.55946,-5.36749 c -7.32264,-11.0422 -10.87192,-27.93022 -8.76396,-41.70028 2.48032,-16.20255 7.87481,-26.93591 16.50616,-32.84216 8.81972,-6.03516 18.25843,-4.21928 26.42697,5.08418 5.10405,5.8132 8.25881,13.0307 10.74859,24.59077 0.89763,4.16772 1.35512,5.01553 1.88865,3.5 1.74936,-4.96925 4.38174,-9.14488 8.31892,-13.19593 4.67456,-4.80978 5.26579,-5.91396 2.32342,-4.33925 -2.51118,1.34394 -5.76952,1.32349 -6.61313,-0.0415 -0.36599,-0.59218 -0.62901,-3.66364 -0.58451,-6.82547 0.0802,-5.69739 0.0412,-5.77677 -4.36135,-8.87998 -2.44325,-1.72217 -4.66355,-2.77319 -4.93399,-2.3356 -0.27044,0.43759 1.09393,4.46318 3.03193,8.94576 2.24227,5.18633 3.4094,9.3266 3.20948,11.38523 -0.30551,3.14591 -0.40458,3.05623 -3.59433,-3.25375 -6.7935,-13.43893 -14.98539,-19.95951 -25.0754,-19.95951 -10.22949,0 -18.27552,7.02749 -25.3906,22.17642 -2.25465,4.80044 -4.47353,8.49682 -4.93084,8.21419 -1.93658,-1.19687 0.68268,-13.95467 4.75592,-23.16497 2.96837,-6.71201 2.9691,-6.58 -0.0322,-5.82671 -2.20032,0.55224 -2.52525,0.23228 -3.15092,-3.10281 -1.93194,-10.29816 7.30443,-26.34388 20.02432,-34.78686 11.44945,-7.59971 21.40442,-10.59123 35.48015,-10.66196 25.3705,-0.12747 46.72686,12.26269 54.46831,31.6005 3.28224,8.19888 3.49369,15.62565 0.58093,20.4033 -1.95839,3.21225 -1.97595,3.55313 -0.42365,8.22665 0.89066,2.68155 1.47422,5.89856 1.29678,7.1489 -0.27658,1.94901 -0.81966,2.22409 -3.80656,1.92805 -1.91617,-0.18992 -4.61617,-0.92777 -6,-1.63968 -2.31371,-1.19026 -10.01608,-3.61584 -10.01608,-3.15418 0,0.1098 2.40866,1.94477 5.35258,4.07773 9.28413,6.72664 14.64742,17.00245 14.64742,28.06381 0,10.7799 -6.60043,22.93173 -15.08041,27.76403 -2.62578,1.4963 -3.73501,2.72873 -3.36036,3.73359 0.44799,1.20155 0.30872,1.2513 -0.69998,0.25 -0.69259,-0.6875 -3.16769,-1.25 -5.50023,-1.25 -2.33254,0 -4.5191,-0.45 -4.85902,-1 -0.36995,-0.59859 0.91095,-1.00882 3.19098,-1.02196 6.75146,-0.0389 14.33849,-4.62311 19.06319,-11.51822 3.68949,-5.38434 6.48941,-15.33692 5.74503,-20.42122 -1.95974,-13.38552 -10.62031,-23.48598 -22.48647,-26.22502 -8.3502,-1.92746 -18.19701,2.31675 -24.01792,10.35228 -3.52904,4.8717 -3.78398,6.83414 -0.88782,6.83414 1.53617,0 1.93764,0.44131 1.4819,1.62895 -0.3438,0.89593 -0.0765,3.14592 0.5939,5 1.22,3.37385 3.0979,4.34394 4.38319,2.26429 1.09359,-1.76946 2.40138,1.116 2.41871,5.33652 0.0205,5.00298 -2.50604,10.78545 -5.87773,13.4521 -2.25122,1.78048 -4.24874,2.22125 -10.85831,2.39596 -8.7988,0.23259 -9.69945,-0.18132 -12.60012,-5.79059 -2.11191,-4.084 -3.01318,-13.00494 -1.69598,-16.78723 0.97268,-2.79301 1.01018,-2.71075 0.54352,1.19223 -0.81326,6.80202 5.62983,17.30777 10.61471,17.30777 1.03907,0 1.88922,0.675 1.88922,1.5 0,0.98737 0.98783,1.5 2.89049,1.5 h 2.89048 l -1.4182,-4.83796 c -0.93375,-3.1853 -1.11619,-5.6544 -0.53407,-7.228 l 0.88413,-2.39004 1.69677,3.28118 c 1.94581,3.76278 5.10419,7.17482 6.64143,7.17482 1.53029,0 3.94897,-6.37358 3.94897,-10.40615 0,-3.12652 -0.25996,-3.45172 -2.62364,-3.28211 -2.22037,0.15932 -2.83916,-0.42285 -4.02584,-3.78758 -2.06354,-5.85103 -3.01195,-6.30201 -4.90494,-2.33235 -1.61952,3.39615 -7.25221,6.66377 -9.30258,5.39657 -0.47776,-0.29527 -1.44211,-2.58504 -2.143,-5.08838 -1.55731,-5.56215 -2.40283,-6.19067 -4.43158,-3.29422 -1.77857,2.53926 -2.1107,1.67599 -0.50762,-1.31939 1.47143,-2.74939 5.34919,-4.06121 8.48299,-2.86974 2.5034,0.95179 2.53309,0.90773 1.86989,-2.77475 -1.69749,-9.42544 -7.6677,-20.1504 -13.54776,-24.33738 -3.19465,-2.27478 -14.33153,-5.46691 -13.31072,-3.81521 0.30956,0.50088 -0.38607,0.91069 -1.54584,0.91069 -8.59441,0 -18.64933,14.37817 -21.10979,30.18622 -1.24759,8.01554 -0.63331,19.47219 1.46449,27.31378 1.31123,4.90137 6.32338,15.41549 8.87702,18.62156 2.8115,3.52982 9.06211,6.87844 12.83945,6.87844 2.09079,0 4.07955,0.45 4.41947,1 0.38301,0.61972 -1.44466,1 -4.80612,1 -3.90997,0 -6.13395,-0.55832 -7.96675,-2 -1.39842,-1.1 -2.99683,-2 -3.55202,-2 -0.55519,0 -3.18421,2.37469 -5.84227,5.27709 -2.65806,2.9024 -4.17257,4.3649 -3.36558,3.25 z m 47.84439,-51.80476 c 0.41637,-3.5049 -1.4248,-6.72233 -3.84683,-6.72233 -2.36724,0 -2.46878,1.54959 -0.42248,6.4471 1.72475,4.12789 3.79577,4.26141 4.26931,0.27523 z m 46.02966,-30.28234 c 1.05204,-0.89165 -1.27937,-4.19175 -4.08874,-5.78758 -4.84323,-2.75114 -12.81675,-3.28152 -18.23348,-1.21285 -4.04179,1.54357 -8.51909,5.54833 -8.51909,7.61996 0,0.70175 29.99321,0.0992 30.84131,-0.61953 z m -79.47832,-12.51751 c 5.85724,-2.65969 12.98391,-2.43972 19.51906,0.60246 l 5.38204,2.50541 -1.48223,-2.26518 c -0.81522,-1.24584 -3.45286,-3.36833 -5.86142,-4.71663 -9.41891,-5.27267 -21.50802,-1.87886 -28.226,7.92397 -3.11167,4.54051 -1.81459,5.36877 2.41855,1.54437 2.26215,-2.04371 5.97465,-4.56119 8.25,-5.5944 z m 81.98375,-11.79492 c 2.40751,-1.99859 2.03506,-5.1424 -1.20625,-10.18178 -8.70376,-13.53207 -25.91747,-21.87753 -45.23053,-21.92842 -8.05964,-0.0212 -20.28179,2.98853 -27.23448,6.70663 -9.87766,5.28228 -20.92209,18.58502 -19.18603,23.10911 0.44594,1.16211 1.84632,1.29333 7.28134,0.6823 12.64126,-1.4212 15.22667,-1.36777 22.97504,0.47485 10.84951,2.58009 11.04586,2.5935 37.35091,2.54935 18.48496,-0.031 23.95489,-0.33691 25.25,-1.41204 z m 3.57757,106.12244 -2.42431,-2.75 2.75,2.42431 c 2.57029,2.26589 3.20859,3.07569 2.42431,3.07569 -0.17912,0 -1.41662,-1.2375 -2.75,-2.75 z m -7.47136,-8.5 -3.95295,-4.25 4.25,3.95295 c 3.95246,3.6762 4.70953,4.54705 3.95295,4.54705 -0.16338,0 -2.07588,-1.9125 -4.25,-4.25 z m -147.82941,0.71134 c -0.96498,-2.51469 -0.68031,-3.16355 0.49853,-1.13634 0.58369,1.00375 0.8506,2.03566 0.59313,2.29313 -0.25747,0.25747 -0.74871,-0.26309 -1.09166,-1.15679 z m 218.37646,-7.46134 c 0.5887,-1.1 1.29537,-2 1.57037,-2 0.275,0 0.0183,0.9 -0.57037,2 -0.5887,1.1 -1.29537,2 -1.57037,2 -0.275,0 -0.0183,-0.9 0.57037,-2 z m -226,-8 c -0.5887,-1.1 -0.84537,-2 -0.57037,-2 0.275,0 0.98167,0.9 1.57037,2 0.5887,1.1 0.84537,2 0.57037,2 -0.275,0 -0.98167,-0.9 -1.57037,-2 z m 230,1.62244 c 0,-0.20765 0.7875,-0.99515 1.75,-1.75 1.58606,-1.24387 1.62143,-1.2085 0.37756,0.37756 -1.30637,1.66575 -2.12756,2.19548 -2.12756,1.37244 z m -285.5,-5.62244 c 0.99549,-1.1 2.03498,-2 2.30997,-2 0.275,0 -0.31448,0.9 -1.30997,2 -0.99549,1.1 -2.03498,2 -2.30998,2 -0.27499,0 0.31449,-0.9 1.30998,-2 z m 290.5,-0.37756 c 0,-0.20765 0.7875,-0.99515 1.75,-1.75 1.58606,-1.24387 1.62143,-1.2085 0.37756,0.37756 -1.30637,1.66575 -2.12756,2.19548 -2.12756,1.37244 z m 58.3605,-9.62244 c 0,-5.225 0.16854,-7.3625 0.37454,-4.75 0.206,2.6125 0.206,6.8875 0,9.5 -0.206,2.6125 -0.37454,0.475 -0.37454,-4.75 z m -298.48806,6.25 c -1.24387,-1.58606 -1.2085,-1.62143 0.37756,-0.37756 0.9625,0.75485 1.75,1.54235 1.75,1.75 0,0.82304 -0.82119,0.29331 -2.12756,-1.37244 z m -60.79349,-0.83333 c 0.048,-1.16495 0.28494,-1.4019 0.60416,-0.60417 0.28887,0.72187 0.25335,1.58437 -0.0789,1.91667 -0.33229,0.33229 -0.56864,-0.25834 -0.52522,-1.3125 z m -0.92106,-4.41667 c 0,-1.375 0.22698,-1.9375 0.50439,-1.25 0.27741,0.6875 0.27741,1.8125 0,2.5 -0.27741,0.6875 -0.50439,0.125 -0.50439,-1.25 z m 56.71455,-0.75 c -1.24387,-1.58606 -1.2085,-1.62143 0.37756,-0.37756 0.9625,0.75485 1.75,1.54235 1.75,1.75 0,0.82304 -0.82119,0.29331 -2.12756,-1.37244 z m -7.43535,-7.5 -2.93709,-3.25 3.25,2.93709 c 3.02945,2.73778 3.70965,3.56291 2.93709,3.56291 -0.1721,0 -1.6346,-1.4625 -3.25,-3.25 z m 284.43535,-3.5 c -1.24387,-1.58606 -1.2085,-1.62143 0.37756,-0.37756 1.66575,1.30637 2.19548,2.12756 1.37244,2.12756 -0.20765,0 -0.99515,-0.7875 -1.75,-1.75 z m -290,-1 c -1.24387,-1.58606 -1.2085,-1.62143 0.37756,-0.37756 0.9625,0.75485 1.75,1.54235 1.75,1.75 0,0.82304 -0.82119,0.29331 -2.12756,-1.37244 z m 315.20651,-1.83333 c 0.048,-1.16495 0.28494,-1.4019 0.60416,-0.60417 0.28887,0.72187 0.25335,1.58437 -0.0789,1.91667 -0.33229,0.33229 -0.56864,-0.25834 -0.52522,-1.3125 z m -358.92106,-4.41667 c 0,-1.375 0.22698,-1.9375 0.50439,-1.25 0.27741,0.6875 0.27741,1.8125 0,2.5 -0.27741,0.6875 -0.50439,0.125 -0.50439,-1.25 z m 25.56433,-0.0504 c 1.22222,-1.28617 2.41565,-2.13849 2.65206,-1.89405 0.23641,0.24445 -0.76359,1.29677 -2.22222,2.33849 l -2.65206,1.89406 z m 230.43567,-2.9496 c 0,-1.375 0.22698,-1.9375 0.50439,-1.25 0.27741,0.6875 0.27741,1.8125 0,2.5 -0.27741,0.6875 -0.50439,0.125 -0.50439,-1.25 z m -163.5936,-0.70687 c -0.54268,-1.4252 -0.42782,-1.54006 0.5598,-0.5598 0.68342,0.67834 0.99067,1.48524 0.68278,1.79313 -0.30789,0.30789 -0.86705,-0.24711 -1.24258,-1.23333 z m -91.48534,-1.87646 c 0.048,-1.16495 0.28494,-1.4019 0.60416,-0.60417 0.28887,0.72188 0.25335,1.58438 -0.0789,1.91667 -0.33229,0.33229 -0.56864,-0.25834 -0.52522,-1.3125 z m 84.42105,-6.06024 c -7.9836,-10.42429 -24.02196,-23.09893 -34.0989,-26.94735 -4.02373,-1.53668 -5.37352,-1.60838 -10.46814,-0.5561 -5.88052,1.2146 -14.86821,5.70763 -21.43197,10.71407 -3.25163,2.48013 -3.47105,2.52623 -2.75028,0.5778 1.35214,-3.65518 6.74564,-8.52154 13.18333,-11.89485 3.4113,-1.7875 6.73418,-3.26001 7.38416,-3.27224 0.64999,-0.0122 2.3068,-0.90222 3.6818,-1.97776 4.21752,-3.29899 9.21623,-2.60595 16.82489,2.33265 11.95911,7.76238 33.16202,30.7202 33.17181,35.91735 0.002,0.9625 -0.1092,1.72412 -0.2467,1.6925 -0.1375,-0.0316 -2.5,-2.99536 -5.25,-6.58607 z m 182.5,5.26601 c 0,-0.20765 0.7875,-0.99515 1.75,-1.75 1.58606,-1.24387 1.62143,-1.2085 0.37756,0.37756 -1.30637,1.66575 -2.12756,2.19548 -2.12756,1.37244 z m 9.90561,-1.44607 c 0.60783,-1.13574 1.59762,-2.36935 2.19954,-2.74135 0.78412,-0.48462 0.78107,-0.0909 -0.0108,1.38861 -0.60783,1.13574 -1.59762,2.36935 -2.19954,2.74135 -0.78412,0.48462 -0.78107,0.0909 0.0108,-1.38861 z m -275.82666,-1.7597 c 0.048,-1.16495 0.28494,-1.4019 0.60416,-0.60417 0.28887,0.72188 0.25335,1.58438 -0.0789,1.91667 -0.33229,0.33229 -0.56864,-0.25834 -0.52522,-1.3125 z m 253,-1 c 0.048,-1.16495 0.28494,-1.4019 0.60416,-0.60417 0.28887,0.72188 0.25335,1.58438 -0.0789,1.91667 -0.33229,0.33229 -0.56864,-0.25834 -0.52522,-1.3125 z m 29.01987,-3.50125 c 6.55273,-8.61174 29.49549,-22.91542 36.75578,-22.91542 2.98264,0 5.34573,1.23688 12.29574,6.4358 8.98831,6.72365 13.2291,11.14123 12.23676,12.74688 -0.56246,0.91007 -1.79928,0.10103 -7.3871,-4.83215 -1.375,-1.21391 -4.91725,-3.41557 -7.87168,-4.89256 -7.90082,-3.94984 -12.97229,-3.24894 -27.26303,3.76783 -6.25091,3.06921 -12.71529,6.77385 -14.36529,8.23254 -1.65,1.45869 -3.9,3.15174 -5,3.76233 -1.68533,0.9355 -1.59111,0.57279 0.59882,-2.30525 z m -193.22638,-1.66542 c -1.24387,-1.58606 -1.2085,-1.62143 0.37756,-0.37756 0.9625,0.75485 1.75,1.54235 1.75,1.75 0,0.82304 -0.82119,0.29331 -2.12756,-1.37244 z m 189.12756,-4.75 c 2.98742,-3.025 5.65668,-5.5 5.93168,-5.5 0.275,0 -1.94426,2.475 -4.93168,5.5 -2.98742,3.025 -5.65668,5.5 -5.93168,5.5 -0.275,0 1.94426,-2.475 4.93168,-5.5 z m -200.03416,-8.25 -5.46584,-5.75 5.75,5.46584 c 3.1625,3.00621 5.75,5.59371 5.75,5.75 0,0.74225 -0.95622,-0.12391 -6.03416,-5.46584 z m 264.48711,1.5 -3.95295,-4.25 4.25,3.95295 c 2.3375,2.17412 4.25,4.08662 4.25,4.25 0,0.75657 -0.87085,-4.9e-4 -4.54705,-3.95295 z m -54.95295,-1.75 c 0.99549,-1.1 2.03498,-2 2.30998,-2 0.275,0 -0.31449,0.9 -1.30998,2 -0.99549,1.1 -2.03498,2 -2.30998,2 -0.275,0 0.31449,-0.9 1.30998,-2 z m -271.5,-8.5 c 1.29174,-1.375 2.57363,-2.5 2.84863,-2.5 0.275,0 -0.55689,1.125 -1.84863,2.5 -1.29175,1.375 -2.57363,2.5 -2.84863,2.5 -0.275,0 0.55688,-1.125 1.84863,-2.5 z m 52.40499,0.25 -1.90499,-2.25 2.25,1.90499 c 2.11445,1.79022 2.70524,2.59501 1.90499,2.59501 -0.18976,0 -1.20226,-1.0125 -2.25,-2.25 z m 242.34501,-5.41228 c 0.6875,-0.27741 1.8125,-0.27741 2.5,0 0.6875,0.27741 0.125,0.50438 -1.25,0.50438 -1.375,0 -1.9375,-0.22697 -1.25,-0.50438 z m -267.48097,-8.03071 c 0.97297,-0.25354 2.32297,-0.23687 3,0.0371 0.67703,0.27393 -0.11903,0.48137 -1.76903,0.46099 -1.65,-0.0204 -2.20394,-0.2445 -1.23097,-0.49804 z m 187.60341,-13.05701 c -1.24387,-1.58606 -1.2085,-1.62143 0.37756,-0.37756 0.9625,0.75485 1.75,1.54235 1.75,1.75 0,0.82304 -0.82119,0.29331 -2.12756,-1.37244 z m -102.87244,-5.56291 c 0,-0.1721 1.4625,-1.6346 3.25,-3.25 l 3.25,-2.93709 -2.93709,3.25 c -2.73778,3.02945 -3.56291,3.70965 -3.56291,2.93709 z m 8,-7.06465 c 0,-0.20765 0.7875,-0.99515 1.75,-1.75 1.58606,-1.24387 1.62143,-1.2085 0.37756,0.37756 -1.30637,1.66575 -2.12756,2.19548 -2.12756,1.37244 z m 33.75,-15.28472 c 0.6875,-0.27741 1.8125,-0.27741 2.5,0 0.6875,0.27741 0.125,0.50439 -1.25,0.50439 -1.375,0 -1.9375,-0.22698 -1.25,-0.50439 z m 12,0 c 0.6875,-0.27741 1.8125,-0.27741 2.5,0 0.6875,0.27741 0.125,0.50439 -1.25,0.50439 -1.375,0 -1.9375,-0.22698 -1.25,-0.50439 z"
           id="path1192" />
        <path
           style="fill:#080808"
           d="m -511.81341,647.47944 c -0.96498,-2.51469 -0.68031,-3.16355 0.49853,-1.13634 0.58369,1.00375 0.8506,2.03566 0.59313,2.29313 -0.25747,0.25747 -0.74872,-0.26309 -1.09166,-1.15679 z m -3.9821,-12.21134 c -5.36841,-17.56801 -7.26245,-36.5341 -5.66732,-56.75 1.22659,-15.54535 -0.15815,-25.92522 -5.66979,-42.5 -8.51338,-25.6017 -22.48057,-44.72287 -40.51583,-55.46642 -7.24663,-4.3168 -10.31367,-5.17255 -12.38309,-3.45508 -1.96811,1.63339 -6.28973,10.25452 -9.78889,19.52769 -3.35835,8.90001 -6.50072,12.17186 -10.38102,10.80873 -5.78629,-2.03269 -7.80965,-18.38735 -4.31961,-34.91492 4.23731,-20.06632 12.15954,-31.14695 27.58411,-38.58121 15.81765,-7.62372 20.34771,-7.59747 31.86694,0.18466 14.43086,9.74915 28.32777,24.29829 35.71981,37.39626 4.59116,8.1351 4.92329,7.89789 6.88714,-4.91895 3.91438,-25.54672 14.311,-46.38335 30.65997,-61.44792 13.07396,-12.04684 28.36473,-18.41452 44.36614,-18.47581 23.57351,-0.0903 44.7073,12.59565 60.06076,36.05255 9.01747,13.77683 14.96995,32.00923 17.11784,52.43177 1.39157,13.23138 2.41942,14.5501 5.9304,7.60865 6.2287,-12.31457 19.02966,-26.83221 33.391,-37.86892 12.71406,-9.77077 16.53945,-10.58817 28.55581,-6.10169 11.21829,4.18851 14.91336,6.4512 21.00943,12.86516 9.79984,10.31087 13.87023,21.72325 14.67137,41.13495 0.71245,17.26245 -1.21602,23.2205 -7.51588,23.2205 -3.0123,0 -4.79244,-2.7373 -9.66548,-14.86253 -5.30168,-13.19177 -7.81038,-17.13747 -10.8961,-17.13747 -1.21256,0 -5.06609,1.6875 -8.56341,3.75 -18.68788,11.02096 -33.38265,31.30429 -42.05291,58.04604 -4.29027,13.2325 -5.01595,19.14381 -5.11966,41.70396 -0.0872,18.96685 -0.8515,30.76167 -2.07251,31.98268 -0.30335,0.30334 -3.17987,-1.03117 -6.39227,-2.96557 -3.2124,-1.93441 -6.3831,-3.51711 -7.04599,-3.51711 -0.75626,0 -1.65629,-3.25964 -2.41601,-8.75 -4.14726,-29.97163 -14.96989,-56.68095 -30.00622,-74.05278 -3.88978,-4.49395 -7.95384,-8.64259 -9.03125,-9.2192 -2.764,-1.47925 -2.47305,-2.17567 1.96838,-4.71161 8.47643,-4.83981 15.0727,-16.99019 15.0727,-27.76403 0,-11.06136 -5.36329,-21.33717 -14.64742,-28.06381 -2.94392,-2.13296 -5.35258,-3.96793 -5.35258,-4.07773 0,-0.46166 7.70237,1.96392 10.01605,3.15418 1.38383,0.71191 4.08383,1.44976 6,1.63968 2.9869,0.29604 3.52998,0.021 3.80656,-1.92805 0.17744,-1.25034 -0.40612,-4.46735 -1.29678,-7.1489 -1.5523,-4.67352 -1.53474,-5.0144 0.42365,-8.22665 2.91276,-4.77765 2.70131,-12.20442 -0.58093,-20.4033 -7.74145,-19.33781 -29.09781,-31.72797 -54.46831,-31.6005 -14.07573,0.0707 -24.0307,3.06225 -35.48015,10.66196 -12.71989,8.44298 -21.95626,24.4887 -20.02432,34.78686 0.62567,3.33509 0.9506,3.65505 3.15092,3.10281 3.00133,-0.75329 3.0006,-0.8853 0.0322,5.82671 -4.07324,9.2103 -6.6925,21.9681 -4.75592,23.16497 0.45731,0.28263 2.67619,-3.41375 4.93084,-8.21419 7.11511,-15.14893 15.16114,-22.17642 25.39063,-22.17642 10.09001,0 18.2819,6.52058 25.0754,19.95951 3.18975,6.30998 3.28882,6.39966 3.59433,3.25375 0.19992,-2.05863 -0.96721,-6.1989 -3.20948,-11.38523 -1.938,-4.48258 -3.30237,-8.50817 -3.03193,-8.94576 0.27044,-0.43758 2.49074,0.61343 4.93399,2.3356 4.40257,3.10321 4.44155,3.18259 4.36135,8.87998 -0.0445,3.16183 0.21852,6.23329 0.58451,6.82547 0.84361,1.36499 4.10195,1.38544 6.61313,0.0415 2.94237,-1.57471 2.35114,-0.47053 -2.32342,4.33925 -3.93718,4.05105 -6.56956,8.22668 -8.31892,13.19593 -0.53353,1.51554 -0.99102,0.66772 -1.88865,-3.5 -2.48978,-11.56007 -5.64454,-18.77757 -10.74859,-24.59076 -8.16854,-9.30347 -17.60725,-11.11935 -26.42697,-5.08419 -8.71611,5.96425 -14.18761,16.96807 -16.54526,33.27443 -1.99248,13.78064 1.52054,30.28625 8.7741,41.22439 l 3.5305,5.32388 -4.07844,4.42458 c -8.23756,8.9367 -18.02464,26.30471 -23.14441,41.07172 -5.72304,16.50707 -9.86522,40.29415 -9.90064,56.85595 -0.0141,6.6 -0.35627,11.49815 -0.76035,10.88478 -0.40408,-0.61337 -1.75013,-1.43213 -2.99122,-1.81946 -1.78805,-0.55803 -2.43825,-0.2227 -3.13183,1.61522 -0.5022,1.33075 -0.49941,3.0374 0.007,4.00372 1.10338,2.10741 1.11331,2.81574 0.0394,2.81574 -0.4633,0 -2.04559,-3.9375 -3.51618,-8.75 z m 2.48265,-161.51667 c -0.98762,-0.98026 -1.10248,-0.8654 -0.5598,0.5598 0.37553,0.98622 0.93469,1.54122 1.24258,1.23333 0.30789,-0.30789 6.4e-4,-1.11479 -0.68278,-1.79313 z m -2.12739,-2.48333 c -0.01,-5.19715 -21.2127,-28.15497 -33.17181,-35.91735 -7.60866,-4.9386 -12.60737,-5.63164 -16.82489,-2.33265 -1.375,1.07554 -3.03181,1.96553 -3.6818,1.97776 -0.64998,0.0122 -3.97286,1.48474 -7.38416,3.27224 -6.43769,3.37331 -11.83119,8.23967 -13.18333,11.89485 -0.72077,1.94843 -0.50135,1.90233 2.75028,-0.5778 6.56376,-5.00644 15.55145,-9.49947 21.43197,-10.71407 5.09462,-1.05228 6.44441,-0.98058 10.46814,0.5561 10.07694,3.84842 26.1153,16.52306 34.0989,26.94735 2.75,3.59071 5.1125,6.55444 5.25,6.58607 0.1375,0.0316 0.24852,-0.73 0.2467,-1.6925 z m 189.09769,-2.42637 c 0.79183,-1.47955 0.79488,-1.87323 0.0108,-1.38861 -0.60192,0.372 -1.59171,1.60561 -2.19954,2.74135 -0.79183,1.47955 -0.79488,1.87323 -0.0108,1.38861 0.60192,-0.372 1.59171,-1.60561 2.19954,-2.74135 z m 8.40561,-6.36529 c 1.65,-1.45869 8.11438,-5.16333 14.36529,-8.23254 14.29074,-7.01677 19.36221,-7.71767 27.26303,-3.76783 2.95443,1.477 6.49668,3.67865 7.87168,4.89256 5.58782,4.93318 6.82464,5.74222 7.3871,4.83215 0.99234,-1.60565 -3.24845,-6.02323 -12.23676,-12.74688 -6.95001,-5.19892 -9.3131,-6.4358 -12.29574,-6.4358 -7.26029,0 -30.20305,14.30368 -36.75578,22.91542 -2.18993,2.87804 -2.28415,3.24075 -0.59882,2.30525 1.1,-0.61059 3.35,-2.30364 5,-3.76233 z m -110.5,41.04166 c 0,-0.825 -0.85015,-1.5 -1.88922,-1.5 -2.77428,0 -5.74273,-2.86935 -8.5947,-8.30777 -2.74556,-5.23552 -2.69183,-10.93269 0.14593,-15.4741 1.85639,-2.97086 2.78377,-2.26926 4.33799,3.28187 0.70089,2.50334 1.66524,4.79311 2.143,5.08838 2.05037,1.2672 7.68306,-2.00042 9.30258,-5.39657 1.89299,-3.96966 2.8414,-3.51868 4.90494,2.33235 1.18668,3.36473 1.80547,3.9469 4.02584,3.78758 2.36368,-0.16961 2.62364,0.15559 2.62364,3.28211 0,4.03257 -2.41868,10.40615 -3.94897,10.40615 -1.53724,0 -4.69562,-3.41204 -6.64143,-7.17482 l -1.69677,-3.28118 -0.88413,2.39004 c -0.58212,1.5736 -0.39968,4.0427 0.53407,7.228 l 1.4182,4.83796 h -2.89048 c -1.90266,0 -2.89049,-0.51263 -2.89049,-1.5 z"
           id="path1190" />
      </g>
    </g>
  </g>
</svg>
